<?xml version="1.0" standalone="no"?>
<!DOCTYPE svg PUBLIC "-//W3C//DTD SVG 1.1//EN" "http://www.w3.org/Graphics/SVG/1.1/DTD/svg11.dtd" >
<svg xmlns="http://www.w3.org/2000/svg">
<metadata>
Created by FontPrep 20130207 at Mon Mar 24 16:12:17 2014
 By Emmanuel Salomon
Created by Jordan Humphreys with FontPrep 2.0 (http://FontPrep.sf.net)
</metadata>
<defs>
<font id="8fab3e67bc05e54219bfd73a6200c6c7" horiz-adv-x='1024' >
  <font-face 
    font-family="foundation-icons"
    font-weight="400"
    font-stretch="normal"
    units-per-em="512"
    panose-1="0 0 5 0 0 0 0 0 0 0"
    ascent="448"
    descent="-64"
    bbox="-1 -65 520 449"
    underline-thickness="50"
    underline-position="-14"
    unicode-range="U+000D-F220"
  />
<missing-glyph horiz-adv-x="187" 
d="M17 0h136v341h-136v-341zM34 17v307h102v-307h-102z" />
    <glyph glyph-name=".notdef" horiz-adv-x="187" 
d="M17 0h136v341h-136v-341zM34 17v307h102v-307h-102z" />
    <glyph glyph-name="uni0000" horiz-adv-x="0" 
 />
    <glyph glyph-name="uni0000" horiz-adv-x="0" 
 />
    <glyph glyph-name="uni000D" unicode="&#xd;" horiz-adv-x="170" 
 />
    <glyph glyph-name="uniF100" unicode="&#xf100;" horiz-adv-x="340" 
d="M306 287h24q10 0 10 10v30q0 10 -10 10h-24v9q0 16 -16 16h-274q-16 0 -16 -16v-308q0 -16 16 -16h274q16 0 16 16v9h24q10 0 10 10v30q0 11 -10 11h-24v29h24q10 0 10 10v30q0 11 -10 11h-24v29h24q10 0 10 10v30q0 10 -10 10h-24v30zM234 166v-44q0 -11 -10 -11h-142
q-9 0 -9 11v44q0 7 5 10l56 26q-22 13 -22 42q0 20 12 34t29 14t29 -14t12 -34q0 -28 -21 -42l55 -26q6 -5 6 -10z" />
    <glyph glyph-name="uniF101" unicode="&#xf101;" horiz-adv-x="425" 
d="M423 31l-1 2v1q-1 0 -1 1l-193 334q-4 9 -16 9q-10 0 -16 -11h-1l-191 -331q-4 -4 -4 -12t5 -13t13 -5h388q8 0 14 6q5 5 5 12q0 1 -2 7zM194 48q-8 8 -8 19t8 19q7 7 19 7t19 -7t7 -19t-7 -19q-8 -8 -19 -8t-19 8zM239 273v-145q0 -11 -11 -11h-31q-11 0 -11 11v144v1
q0 10 10 10h32q11 0 11 -10v0z" />
    <glyph glyph-name="uniF102" unicode="&#xf102;" horiz-adv-x="355" 
d="M337 370h-320q-17 0 -17 -17v-16q0 -17 17 -17h320q18 0 18 17v16q0 17 -18 17zM312 235v16q0 17 -18 17h-233q-18 0 -18 -17v-16q0 -17 18 -17h233q18 0 18 17zM320 64h-285q-18 0 -18 -17v-16q0 -17 18 -17h285q17 0 17 17v16q0 17 -17 17zM294 133v16q0 17 -17 17
h-199q-17 0 -17 -17v-16q0 -17 17 -17h199q17 0 17 17z" />
    <glyph glyph-name="uniF103" unicode="&#xf103;" horiz-adv-x="355" 
d="M337 369h-320q-17 0 -17 -17v-16q0 -18 17 -18h320q6 0 13 5q5 5 5 13v16q0 17 -18 17zM337 268h-320q-17 0 -17 -17v-16q0 -18 17 -18h320q7 0 13 6q5 5 5 12v16q0 17 -18 17zM337 167h-320q-17 0 -17 -18v-16q0 -17 17 -17h320q18 0 18 17v16q0 6 -5 13q-7 5 -13 5z
M337 66h-320q-17 0 -17 -18v-16q0 -17 17 -17h320q18 0 18 17v16q0 8 -5 13q-7 5 -13 5z" />
    <glyph glyph-name="uniF104" unicode="&#xf104;" horiz-adv-x="355" 
d="M337 370h-320q-17 0 -17 -17v-16q0 -17 17 -17h320q18 0 18 17v16q0 17 -18 17zM17 218h234q18 0 18 17v16q0 6 -5 13q-7 5 -13 5h-234q-17 0 -17 -18v-16q0 -17 17 -17zM302 64h-285q-17 0 -17 -17v-16q0 -17 17 -17h285q18 0 18 17v16q0 17 -18 17zM17 116h199
q18 0 18 17v16q0 17 -18 17h-199q-17 0 -17 -17v-16q0 -17 17 -17z" />
    <glyph glyph-name="uniF105" unicode="&#xf105;" horiz-adv-x="355" 
d="M337 370h-320q-17 0 -17 -17v-16q0 -17 17 -17h320q18 0 18 17v16q0 17 -18 17zM337 268h-233q-18 0 -18 -17v-16q0 -17 18 -17h233q18 0 18 17v16q0 17 -18 17zM337 64h-285q-17 0 -17 -17v-16q0 -17 17 -17h285q18 0 18 17v16q0 17 -18 17zM355 133v16q0 17 -18 17
h-199q-17 0 -17 -17v-16q0 -17 17 -17h199q18 0 18 17z" />
    <glyph glyph-name="uniF106" unicode="&#xf106;" horiz-adv-x="393" 
d="M392 104l-48 84q-1 4 -7 4t-8 -5l-46 -82q-2 -2 -2 -5q0 -8 8 -8h12q-32 -35 -79 -44v150h47q8 0 8 8v35q0 8 -8 8h-47v27q34 16 34 54q0 25 -17 42t-42 17t-42 -17q-18 -16 -18 -42q0 -38 34 -54v-27h-46q-8 0 -8 -8v-35q0 -8 8 -8h46v-150q-47 9 -79 44h12q9 0 9 8
q0 2 -2 4l-48 84q-1 4 -7 4q-5 0 -7 -5l-47 -82q-2 -2 -2 -5q0 -8 8 -8h22q27 -45 70 -70q44 -27 97 -27t98 27q43 25 69 70h21q8 0 8 8q0 3 -1 4zM197 363q13 0 23 -9q10 -10 10 -24t-10 -24t-23 -10t-23 10q-11 11 -11 24t10 23t24 10z" />
    <glyph glyph-name="uniF107" unicode="&#xf107;" horiz-adv-x="388" 
d="M360 98v188q28 15 28 47q0 21 -15 38q-16 16 -38 16q-27 0 -44 -24h-194q-16 24 -44 24q-22 0 -37 -16q-16 -16 -16 -38q0 -32 28 -47v-188q-28 -15 -28 -47q0 -22 16 -38q15 -16 37 -16q37 0 50 34h182q13 -34 50 -34q22 0 38 16q15 16 15 38q0 32 -28 47zM79 98v188
q15 8 23 26h184q8 -18 23 -26v-188q-6 -4 -17 -16h-195q-10 12 -18 16z" />
    <glyph glyph-name="uniF108" unicode="&#xf108;" horiz-adv-x="401" 
d="M401 279v1q0 5 -5 13v1l-40 69q-1 10 -13 10h-1h-284q-8 0 -11 -7l-42 -72q-5 -8 -5 -14v-1v-247q0 -9 6 -15t15 -6h1h357h1q9 0 15 6t6 15v247zM269 154l-63 -90q-2 -2 -5 -2t-5 2l-64 90q-2 5 -1 6q1 3 6 3h30v81q0 6 6 6h55q6 0 6 -6v-81h30q4 0 6 -3q1 -1 -1 -6z
M39 301l27 47h269l27 -47h-323z" />
    <glyph glyph-name="uniF109" unicode="&#xf109;" horiz-adv-x="292" 
d="M2 188l134 -187q3 -5 10 -5q8 0 11 5l132 187q5 7 1 13q-4 7 -11 7h-63v167q0 13 -12 13h-116q-13 0 -13 -13v-167h-62q-9 0 -12 -7q-4 -6 1 -13z" />
    <glyph glyph-name="uniF10A" unicode="&#xf10a;" horiz-adv-x="393" 
d="M192 335l-187 -133q-5 -3 -5 -10q0 -8 5 -11l187 -132q7 -5 13 -1q7 4 7 11v62h168q13 0 13 13v116q0 13 -13 13h-168v62q0 7 -7 11q-6 4 -13 -1z" />
    <glyph glyph-name="uniF10B" unicode="&#xf10b;" horiz-adv-x="393" 
d="M201 49l186 133q6 4 6 10t-6 11l-186 132q-7 5 -14 1t-7 -11v-62h-167q-13 0 -13 -13v-116q0 -13 13 -13h167v-62q0 -7 7 -11t14 1z" />
    <glyph glyph-name="uniF10C" unicode="&#xf10c;" horiz-adv-x="292" 
d="M289 196l-133 187q-3 5 -11 5q-7 0 -10 -5l-133 -187q-5 -7 -1 -13q3 -7 12 -7h62v-167q0 -13 13 -13h116q12 0 12 13v167h63q7 0 11 7q4 6 -1 13z" />
    <glyph glyph-name="uniF10D" unicode="&#xf10d;" horiz-adv-x="512" 
d="M201 -5l26 158q0 5 -3 8q-2 2 -8 2l-157 -26q-5 -2 -7 -7t2 -9l31 -30l-82 -83q-7 -6 0 -13l56 -56q7 -7 13 0l83 82l30 -31q4 -4 9 -2t7 7zM311 389l-26 -158q0 -5 3 -8q2 -2 8 -2l157 26q5 2 7 7t-2 9l-31 30l82 83q7 6 0 13l-56 56q-7 7 -13 0l-83 -82l-30 31
q-4 4 -9 2t-7 -7z" />
    <glyph glyph-name="uniF10E" unicode="&#xf10e;" horiz-adv-x="512" 
d="M26 104l-26 -158q0 -4 3 -7t7 -3l158 27q5 1 7 6q1 5 -3 9l-30 31l82 82q6 7 0 13l-57 57q-6 6 -12 0l-83 -83l-31 31q-4 4 -9 2t-6 -7zM486 280l26 158q0 4 -3 7t-7 3l-158 -27q-5 -1 -7 -6q-1 -5 3 -9l30 -31l-82 -82q-6 -7 0 -13l57 -57q6 -6 12 0l83 83l31 -31
q4 -4 9 -2t6 7z" />
    <glyph glyph-name="uniF10F" unicode="&#xf10f;" horiz-adv-x="512" 
d="M184 -10l24 145q0 5 -2 7q-3 3 -7 3l-145 -25q-4 -1 -6 -5q-2 -5 2 -9l28 -28l-76 -76q-6 -6 0 -11l53 -53q5 -6 11 0l76 76l28 -28q4 -4 9 -2q4 2 5 6zM328 394l-24 -145q0 -5 2 -7q3 -3 7 -3l145 25q4 1 6 5q2 5 -2 9l-28 28l76 76q6 6 0 11l-53 53q-5 6 -11 0l-76 -76
l-28 28q-4 4 -9 2q-4 -2 -5 -6zM458 120l-145 24q-5 0 -7 -2q-3 -3 -3 -7l25 -145q1 -4 5 -6q5 -2 9 2l28 28l76 -76q6 -6 11 0l53 53q6 5 0 11l-76 76l28 28q4 4 2 9q-2 4 -6 5zM54 264l145 -24q5 0 7 2q3 3 3 7l-25 145q-1 4 -5 6q-5 2 -9 -2l-28 -28l-76 76q-6 6 -11 0
l-53 -53q-6 -5 0 -11l76 -76l-28 -28q-4 -4 -2 -9q2 -4 6 -5z" />
    <glyph glyph-name="uniF110" unicode="&#xf110;" horiz-adv-x="512" 
d="M24 90l-24 -144q0 -6 2 -8t8 -2l144 25q4 1 6 5t-2 8l-28 29l76 75q6 6 0 12l-52 52q-6 6 -12 0l-76 -75l-28 28q-5 3 -8 2q-5 -2 -6 -7zM488 294l24 144q0 6 -2 8t-8 2l-144 -25q-4 -1 -6 -5q-2 -5 2 -8l28 -29l-76 -75q-6 -6 0 -12l52 -52q6 -6 12 0l76 75l28 -28
q5 -3 8 -2q5 2 6 7zM358 -40l144 -24q6 0 8 2t2 8l-25 144q-1 4 -5 6t-8 -2l-29 -28l-75 76q-6 6 -12 0l-52 -52q-6 -6 0 -12l75 -76l-28 -28q-3 -3 -2 -8q2 -5 7 -6zM154 424l-144 24q-6 0 -8 -2t-2 -8l25 -144q1 -4 5 -6t8 2l29 28l75 -76q6 -6 12 0l52 52q6 6 0 12
l-75 76l28 28q3 3 2 8q-2 5 -7 6z" />
    <glyph glyph-name="uniF111" unicode="&#xf111;" horiz-adv-x="440" 
d="M94 315l-1 1l2 4q1 2 6.5 8t9.5 11q13 17 15 20q6 8 1 16q-4 5 -8 1q-12 -16 -23 -27q-7 -6 -40 -55q-5 -9 -8 -17q-4 -8 -7 -22q-5 -12 -6 -18q-11 -29 -31 -37q-3 -3 -3 -4q-3 -28 2 -52q4 -24 17 -41q5 3 12.5 6.5t10.5 4.5q26 11 49 5q12 -3 26 2t27.5 9t22.5 7l12 4
q13 4 18 16q2 6 6 14l2.5 7.5t1.5 5.5q3 12 -1 13v3q3 9 3 27q0 9 -6 13q-2 2 -9 7.5t-12 8.5q-16 11 -29 10h-5q-2 -1 -4 -1q-17 -1 -26 -7q-1 -1 -3 -1q0 5 3 7q1 1 15 11t15 11q6 2 7 2q6 0 11 1t11 1q3 2 9 -3q14 -11 15 -11q11 -6 18 4q3 4 -1 7q-3 2 -11 10l-12 9
q-4 4 -7 4q-30 3 -32 2q-1 0 -5.5 -1.5t-12.5 -4t-17 -5.5q-8 -2 -11 -4v1l3 3q1 1 4.5 3.5t6.5 4.5q5 3 10 8l4 4l3 3l2 1q11 4 23 8q13 5 21 6q6 2 10 6q4 3 2 8q-1 4 -7 4q-22 -1 -35 -5q-33 -11 -59 -34q-1 0 -2 -1l-1 -1q-2 0 -2 -1zM167 170q-11 2 -29 -3q-4 -1 -6 1
q-1 1 -17 20q-7 7 -4 16q6 18 17 23q1 1 7 3l6 2q1 0 3 1.5t4 2.5q6 2 8 3q1 1 6 -1q3 -2 9.5 -6t9.5 -6t5 -5l5 -10q1 -2 3 -5.5t2 -5.5q1 -3 -1 -5q-13 -10 -18 -22q-1 -3 -10 -3zM346 69l1 -1q0 -2 -1 -3q0 -1 -1 -2l-15 -18q-13 -17 -15 -20q-6 -9 -2 -16q3 -6 8 -1
l21 24q4 6 10 12q2 2 5 5.5t4 5.5l10 15q7 12 10 15q8 12 19 43q4 17 11 32q8 18 21 22q7 1 7 6q3 37 -4 61q-6 21 -15 32l-10 -5l-4 -2l-4 -2l-1 -1q-27 -13 -52 -6q-11 3 -26 -2q-45 -15 -62 -20q-15 -5 -19 -18q-4 -14 -7 -20q-1 -1 -1 -2q-1 -2 -1 -3l-2 -6v-4
q1 -1 1 -9q-2 -24 -2 -27q0 -4 4 -8q4 -3 14 -11q4 -3 14 -10q12 -8 23 -7q29 2 39 9q-1 -7 -3 -7q-2 -2 -14 -10q-3 -2 -7.5 -5.5t-6.5 -5.5q-5 -3 -10 -3q-18 -2 -22 -2l-6 2l-8 6l-9 6q-4 3 -11 1q-17 -5 -3 -15q2 -1 11 -8q7 -7 9 -8q4 -4 7 -4q7 0 15 -0.5t12 -1
t6 -0.5q13 3 32 10q1 1 7 3q5 1 6 3q0 -2 -2 -4q-5 -3 -12 -9q-6 -6 -12 -10q-8 -6 -13 -8q-1 0 -7 -2t-11 -3q-15 -5 -19 -6q-5 -2 -11 -8q-2 -4 -1 -8q2 -6 7 -4q25 2 35 6q32 11 53 30q3 3 6 4q2 1 4 3zM245 186q2 2 8 11q8 12 10 14q1 3 7 3q14 -2 33 3q3 0 4 -1
q16 -18 19 -21q5 -5 3 -13q-3 -12 -4 -13q-3 -9 -17 -14q-2 -1 -5 -2l-6 -3q-4 -2 -12 -5q-2 -1 -7 1l-9 6l-10 6q-3 1 -4 4q-3 5 -10 24z" />
    <glyph glyph-name="uniF112" unicode="&#xf112;" horiz-adv-x="343" 
d="M338 140v1l-89 51l89 51q9 4 4 14l-1 1l-28 49q-5 8 -13 3l-90 -51v103q0 10 -10 10h-57q-10 0 -10 -10v-103l-89 52q-10 5 -14 -4v-1l-29 -49q-5 -8 4 -13v-1l90 -51l-88 -50h-1q0 -1 -1 -1q-9 -4 -4 -14l30 -51q6 -8 13 -2l89 51v-100v-3q0 -10 10 -10h58q9 2 9 10v103
l87 -50q1 -1 2 -1q9 -5 14 3l28 49h1v2q3 8 -4 12z" />
    <glyph glyph-name="uniF113" unicode="&#xf113;" horiz-adv-x="384" 
d="M384 183v9q0 80 -56 136t-136 56t-136 -56t-56 -136t56 -136t136 -56q51 0 94 25q5 2 5 7q0 6 -4 7l-34 21q-2 2 -5 2q-1 -1 -3 -1q-21 -10 -53 -10q-58 0 -99 42q-42 41 -42 99t42 100q41 41 99 41q55 0 95 -37q41 -38 45 -91q0 -35 -12 -58q-12 -22 -27 -22
q-17 0 -17 21q0 3 1 6v5l22 101h-1l1 2q0 6 -7 6h-37q-5 0 -7 -5l-4 -18q-16 30 -56 30t-71 -33q-31 -34 -31 -78q0 -35 19 -54q19 -21 51 -21q40 0 65 36v-3q1 -11 30 -25q28 -14 48 -14q35 0 60 25t25 77zM237 209l-11 -52q-21 -30 -50 -30q-16 0 -27 11q-10 10 -10 29
q0 27 18 46t44 19q25 0 36 -23z" />
    <glyph glyph-name="uniF114" unicode="&#xf114;" 
d="M122 53l-17 -45h167l-17 45h-133zM136 98h105l-53 138zM333 376h-297q-15 0 -25 -10q-11 -11 -11 -26v-296q0 -14 11 -25t25 -11h11l106 270q5 9 13 9h45q9 0 13 -9l106 -270h3q15 0 26 11q10 10 10 25v296q0 16 -10 26t-26 10z" />
    <glyph glyph-name="uniF115" unicode="&#xf115;" horiz-adv-x="484" 
d="M476 236h-40v87q0 9 -9 9h-418q-9 0 -9 -9v-262q0 -9 9 -9h418q9 0 9 9v95h40q8 0 8 9v62q0 9 -8 9zM385 103h-333v177h333v-177z" />
    <glyph glyph-name="uniF116" unicode="&#xf116;" horiz-adv-x="484" 
d="M476 236h-40v87q0 9 -9 9h-418q-9 0 -9 -9v-262q0 -9 9 -9h418q9 0 9 9v95h40q8 0 8 9v62q0 9 -8 9zM385 103h-333v177h333v-177zM78 128h281v129h-281v-129z" />
    <glyph glyph-name="uniF117" unicode="&#xf117;" horiz-adv-x="484" 
d="M476 236h-40v87q0 9 -9 9h-418q-9 0 -9 -9v-262q0 -9 9 -9h418q9 0 9 9v95h40q8 0 8 9v62q0 9 -8 9zM385 103h-333v177h333v-177zM276 255h-199v-126h149z" />
    <glyph glyph-name="uniF118" unicode="&#xf118;" horiz-adv-x="384" 
d="M191 253l-11 -42q50 -12 55 9q0 7 1 10q0 2 -5 7q-2 2 -5 4l-2 2q-7 3 -9 4q-6 1 -9 3q-2 0 -8 2q-4 1 -7 1zM175 190l-11 -47q57 -16 64 9q2 6 0 12q-4 6 -7 9q-6 4 -11 7q-10 4 -13 5t-13 3q-2 0 -4 0.5t-4 1.5h-1zM238 378q-75 19 -144 -22q-68 -41 -88 -118
q-19 -75 22 -144q41 -68 118 -88q76 -19 145 22q67 40 87 118q19 76 -22 145q-40 67 -118 87zM277 219q-5 -27 -27 -31q31 -16 19 -51q-13 -40 -74 -28l-9 -35l-21 5l9 35q-8 1 -17 4l-9 -35l-21 6l9 35q-1 1 -7 3q-3 1 -8 1l-28 6l11 24l15 -3q8 -2 10 5l14 55h1q0 -1 1 -1
q-1 0 -1 1h-1l9 39q0 12 -9 13l-16 4l6 22l29 -7q10 -2 13 -3l9 34l21 -5l-8 -34q1 0 9 -2q6 -2 8 -2l8 34l21 -6l-9 -34q47 -16 43 -49z" />
    <glyph glyph-name="uniF119" unicode="&#xf119;" horiz-adv-x="260" 
d="M213 205q33 17 28 55q-4 46 -79 54v47q0 7 -6 7h-20v0q-6 0 -6 -7v-45h-13q-6 -1 -13 -1v46q0 7 -6 7h-20v0q-6 0 -6 -7v-47h-21h-45q-6 0 -6 -6v-22q0 -6 6 -6h24q17 0 19 -14v-61v-85q-3 -11 -13 -11h-23q-4 0 -6 -5h-1l-5 -27q0 -7 6 -7h42h23v-47q0 -7 6 -7h20
q6 0 6 7v47h14q5 -1 12 -1v-46q0 -7 6 -7h20q6 0 6 7v47q44 1 70 17q23 15 28 51q4 55 -47 67zM105 213v64h10h13h14q9 -1 15 -3l12 -6q6 -3 9 -9t3 -14q0 -6 -2 -12q-4 -6 -7 -8q-5 -5 -10 -6q-2 -1 -4.5 -1.5t-4.5 -1.5t-3 -1q-3 -1 -13 -1q-5 -1 -12 -1h-12h-8zM105 109
v71h12h16q9 0 17 -1q10 -1 18 -3q4 -2 14 -6q6 -4 11 -10q3 -8 3 -16q0 -5 -2 -11q-3 -7 -7 -9q-3 -3 -9 -7q-3 -2 -12 -4q-10 -2 -14 -3t-14 -1h-12h-12h-9z" />
    <glyph glyph-name="uniF11A" unicode="&#xf11a;" horiz-adv-x="342" 
d="M91 347q0 -37 36 -37q37 0 37 37q0 36 -37 36q-36 0 -36 -36zM341 15l-107 186q2 4 2 9q0 10 -9 14l-31 18l-47 47q-10 13 -28 13q-16 0 -27 -11l-54 -55q-2 -2 -2 -3h1h-1v-62q0 -1 2 -7q2 -4 6 -6q6 -2 8 -2q7 0 11 4t4 11v52l19 18v-96l-36 -62l-45 -45q-7 -6 -7 -16
q0 -9 6 -15t15 -6q11 0 17 8l49 49l41 72l37 -37l47 -81q6 -11 19 -11q9 0 15 6t6 15t-4 13l-49 85l-45 44v76l23 -23v0l35 -20h1v-1q6 -2 8 -2h3l107 -184v-1q1 -3 5 -3q6 0 6 6q0 2 -1 3z" />
    <glyph glyph-name="uniF11B" unicode="&#xf11b;" horiz-adv-x="239" 
d="M231 120l-72 72l72 71q1 1 1 2t1 1q6 8 6 14q0 10 -8 16l-101 101q-6 8 -17 8q-9 0 -15 -6q-6 -7 -6 -16q0 -5 1 -6v-119l-55 55q-7 7 -16 7t-15 -6q-7 -7 -7 -16q0 -8 7 -15l86 -86v-11l-87 -86q-6 -6 -6 -15t7 -15q6 -7 15 -7q10 0 16 7l55 55v-124v-1q0 -9 6 -15
t15 -6t16 7l102 102l1 1q6 7 6 14q0 11 -8 17zM186 103l-50 -50v101zM136 230v100l50 -50z" />
    <glyph glyph-name="uniF11C" unicode="&#xf11c;" horiz-adv-x="242" 
d="M186 197q20 4 36 23q14 17 14 43q0 31 -22 53q-22 21 -61 21h-140q-13 0 -13 -13v-264q0 -13 13 -13h144q40 0 63 23q22 22 22 56q0 28 -16 47q-17 20 -40 24zM62 283h77q15 0 25 -8q9 -9 9 -23q0 -30 -34 -30h-77v61zM142 101h-80v66h80q16 0 27 -9q10 -10 10 -24
q0 -33 -37 -33z" />
    <glyph glyph-name="uniF11D" unicode="&#xf11d;" horiz-adv-x="328" 
d="M328 7v327q0 8 -8 8h-17v-309q0 -9 -8 -9h-261q-7 0 -8 7v19h242h1q8 0 8 8v319q0 8 -8 8h-1h-29v-66v-84v-29q0 -4 -4 -4q-1 0 -3 2l-29 29q-1 1 -3 1q-1 0 -2 -1h-1l-29 -30q-1 -1 -3 -1q-4 0 -4 4v29v84v66h-153q-8 0 -8 -8v-1v-303v-65v-1q0 -8 8 -8h312q8 0 8 8z
" />
    <glyph glyph-name="uniF11E" unicode="&#xf11e;" horiz-adv-x="328" 
d="M328 7v327q0 8 -8 8h-17v-309q0 -9 -8 -9h-261q-7 0 -8 7v19h242h1q8 0 8 8v319q0 8 -8 8h-1h-260q-8 0 -8 -8v-1v-303v-65v-1q0 -8 8 -8h312q8 0 8 8zM25 262v64q0 8 9 8h209q8 0 8 -8v-64q0 -8 -8 -8h-209q-9 0 -9 8z" />
    <glyph glyph-name="uniF11F" unicode="&#xf11f;" horiz-adv-x="218" 
d="M203 381h-188q-15 0 -15 -16v-34v-235v-82q0 -11 11 -11q5 0 8 3l83 83q3 3 7 3q5 0 8 -3l81 -82q4 -4 9 -4q11 0 11 11v82v235v34q0 16 -15 16z" />
    <glyph glyph-name="uniF120" unicode="&#xf120;" horiz-adv-x="265" 
d="M0 325q0 -35 36 -35q35 0 35 35q0 36 -35 36q-36 0 -36 -36zM194 325q0 -35 35 -35q36 0 36 35q0 36 -36 36q-35 0 -35 -36zM36 228q-36 0 -36 -36t36 -36q35 0 35 36t-35 36zM229 228q-35 0 -35 -36t35 -36q36 0 36 36t-36 36zM36 95q-36 0 -36 -36t36 -36q35 0 35 36
t-35 36zM229 95q-35 0 -35 -36t35 -36q36 0 36 36t-36 36z" />
    <glyph glyph-name="uniF121" unicode="&#xf121;" horiz-adv-x="395" 
d="M341 153l48 28q6 5 6 11t-6 11l-47 28l27 47v1q3 5 -1 12t-10 7h-55v55q0 7 -7 10t-12 1l-49 -28l-27 46q-5 6 -11 6q-7 0 -11 -6l-27 -47l-48 27q-5 2 -12 -1t-7 -10v-55h-54q-7 0 -10 -6q-5 -8 -1 -13l27 -46l-48 -28q-6 -5 -6 -11t6 -11l47 -28l-27 -48q-2 -5 1 -12
t10 -7h55v-55q0 -7 7 -10t12 -1l49 28l27 -46q5 -6 11 -6t11 6l27 47l47 -27q5 -4 13 1q6 3 6 10h1v55h54q7 0 10 6q5 8 1 13zM165 134l-50 22l22 -38l-13 -8l-34 59l13 8l49 -21l-21 37l12 7l34 -59zM189 148l-34 59l42 24l6 -11l-29 -17l7 -13l29 17l6 -11l-29 -17l8 -13
l29 17l7 -11zM286 204l-34 34l13 -46l-13 -8l-51 49l14 8l35 -36l-13 49l9 5l36 -36l-14 49l14 8l17 -69z" />
    <glyph glyph-name="uniF122" unicode="&#xf122;" horiz-adv-x="395" 
d="M167 163l19 11l-24 20zM341 153l48 28q6 5 6 11t-6 11l-47 28l27 47v1q3 5 -1 12t-10 7h-55v55q0 7 -7 10t-12 1l-49 -28l-27 46q-5 6 -11 6q-7 0 -11 -6l-27 -47l-48 27q-5 2 -12 -1t-7 -10v-55h-54q-7 0 -10 -6q-5 -8 -1 -13l27 -46l-48 -28q-6 -5 -6 -11t6 -11l47 -28
l-27 -48q-2 -5 1 -12t10 -7h55v-55q0 -7 7 -10t12 -1l49 28l27 -46q5 -6 11 -6t11 6l27 47l47 -27q5 -4 13 1q6 3 6 10h1v55h54q7 0 10 6q5 8 1 13zM134 114q-14 -10 -31 -5l1 14q14 -5 24 3q10 6 6 12q-1 4 -21 -1q-20 -6 -27 7q-10 18 12 31q14 8 27 5l-1 -14
q-10 3 -21 -3q-8 -5 -5 -11q2 -3 21 3q20 5 27 -8q10 -19 -12 -33zM205 157l-10 8l-25 -15l2 -12l-14 -8l-11 72l15 9l57 -46zM224 168l-34 59l13 7l27 -48l25 15l7 -11zM270 195l-34 59l42 24l6 -11l-29 -17l7 -13l29 17l6 -11l-28 -17l8 -13l29 17l6 -11z" />
    <glyph glyph-name="uniF123" unicode="&#xf123;" horiz-adv-x="395" 
d="M341 153l48 28q6 5 6 11t-6 11l-47 28l27 47v1q3 5 -1 12t-10 7h-55v55q0 7 -7 10t-12 1l-49 -28l-27 46q-5 6 -11 6q-7 0 -11 -6l-27 -47l-48 27q-5 2 -12 -1t-7 -10v-55h-54q-7 0 -10 -6q-5 -8 -1 -13l27 -46l-48 -28q-6 -5 -6 -11t6 -11l47 -28l-27 -48q-2 -5 1 -12
t10 -7h55v-55q0 -7 7 -10t12 -1l49 28l27 -46q5 -6 11 -6t11 6l27 47l47 -27q5 -4 13 1q6 3 6 10h1v55h54q7 0 10 6q5 8 1 13z" />
    <glyph glyph-name="uniF124" unicode="&#xf124;" horiz-adv-x="326" 
d="M320 246h-314q-6 0 -6 -7v-225q0 -6 6 -6h314q6 0 6 6v225q0 7 -6 7zM109 55q-19 0 -32 6q-2 2 -2 4l3 22q0 1 1 2h3q13 -5 29 -5q20 0 20 13q0 15 -30 16q-3 0 -3 3v22q0 3 3 3q24 1 24 13q0 9 -15 9q-12 0 -24 -6h-3q-2 0 -2 2l-3 22q0 1 2 3q13 7 37 7q19 0 32 -8
q12 -9 12 -22q0 -21 -21 -31q25 -10 25 -31q0 -20 -15 -32q-16 -12 -41 -12zM245 186v-125q0 -4 -3 -4h-27q-3 0 -3 4v88l-17 -7h-3q-2 0 -2 3l-3 22q0 1 2 3l38 19h2h13q3 0 3 -3zM320 347h-34v-16q0 -34 -36 -34t-36 34v16h-102v-16q0 -34 -36 -34t-36 34v16h-34
q-6 0 -6 -6v-66q0 -7 6 -7h314q6 0 6 7v66q0 6 -6 6zM61 347v-16q0 -13 15 -13t15 13v16v16q0 13 -15 13t-15 -13v-16zM235 347v-16q0 -13 15 -13t15 13v16v16q0 13 -15 13t-15 -13v-16z" />
    <glyph glyph-name="uniF125" unicode="&#xf125;" horiz-adv-x="415" 
d="M159 175q0 -48 49 -48q48 0 48 48q0 49 -48 49q-49 0 -49 -49zM396 324h-86v15q0 8 -5 13q-6 6 -14 6h-168q-7 0 -13 -6t-6 -13v-15h-85q-8 0 -13 -5q-6 -6 -6 -14v-259q0 -8 6 -14q5 -5 13 -5v-1h377v1q8 0 13 5q6 6 6 14v259q0 8 -6 14q-5 5 -13 5zM209 77
q-41 0 -70 29t-29 69q0 41 29 70t70 29q40 0 69 -29t29 -70q0 -27 -13 -49q-14 -22 -36 -36q-22 -13 -49 -13zM389 248h-75v51h75v-51z" />
    <glyph glyph-name="uniF126" unicode="&#xf126;" horiz-adv-x="397" 
d="M393 293l-66 66q-4 4 -9 4q-4 0 -8 -4l-176 -176l-47 47q-9 8 -17 0l-66 -66q-4 -4 -4 -9t4 -9l121 -121q4 -4 8 -4l1 1v-1q5 0 9 4l250 250q9 9 0 18z" />
    <glyph glyph-name="uniF127" unicode="&#xf127;" horiz-adv-x="381" 
d="M379 323l-44 45q-2 2 -6 2t-6 -2l-159 -160l-31 31q-6 6 -12 0l-44 -44q-3 -3 -3 -6t3 -6l81 -80q3 -3 6 -3t6 3l209 209q5 6 0 11zM277 173v-108h-226v226h159l51 51h-234h-1q-10 0 -18 -8t-8 -18v-276q0 -10 8 -18t18 -8v0h275h1q10 0 18 8t8 18v185z" />
    <glyph glyph-name="uniF128" unicode="&#xf128;" horiz-adv-x="315" 
d="M315 -2v362q0 11 -8 19t-19 8h-75v18q0 8 -8 8h-95q-8 0 -8 -8v-1v-17h-75q-11 0 -19 -8t-8 -19v-362q0 -11 8 -19t19 -8h1h259h1q11 0 19 8t8 19zM264 22h-213v314h25v-15v-1q0 -9 10 -9h143q10 0 10 9v16h25v-314zM102 237q0 7 -6 7l-1 -1v1h-12q-7 0 -7 -7v-13
q0 -6 7 -6h12h1q6 0 6 6v13zM239 237q0 7 -7 7h-98q-7 0 -7 -7v-13q0 -6 7 -6h98q7 0 7 6v13zM102 186q0 7 -6 7l-1 -1v1h-12q-7 0 -7 -7v-13q0 -6 7 -6h12h1q6 0 6 6v13zM239 186q0 7 -7 7h-98q-7 0 -7 -7v-13q0 -6 7 -6h98q7 0 7 6v13zM102 135q0 6 -6 6h-1h-12
q-7 0 -7 -6v-13q0 -6 7 -6h12h1q6 0 6 6v13zM239 135q0 6 -7 6h-98q-7 0 -7 -6v-13q0 -6 7 -6h98q7 0 7 6v13z" />
    <glyph glyph-name="uniF129" unicode="&#xf129;" horiz-adv-x="392" 
d="M391 228l-43 42q-4 4 -9 0l-115 -116l-16 -59q-2 -3 1 -6q4 -4 7 -2l59 16l116 116q1 1 1 4q0 4 -1 5zM227 107l10 35l25 -26zM309 73h-39q-6 0 -6 -6v-45h-213v314h25v-15v-1q0 -9 10 -9h143q10 0 10 9v16h25v-44q0 -7 6 -7h39q6 0 6 7v68q0 11 -8 19t-19 8h-75v18
q0 8 -8 8h-95q-8 0 -8 -8v-1v-17h-75q-11 0 -19 -8t-8 -19v-362q0 -11 8 -19t19 -8h1h259h1q11 0 19 8t8 19v69q0 6 -6 6z" />
    <glyph glyph-name="uniF12A" unicode="&#xf12a;" horiz-adv-x="315" 
d="M315 -2v362q0 11 -8 19t-19 8h-75v18q0 8 -8 8h-95q-8 0 -8 -8v-1v-17h-75q-11 0 -19 -8t-8 -19v-362q0 -11 8 -19t19 -8h1h259h1q11 0 19 8t8 19zM264 22h-213v314h25v-15v-1q0 -9 10 -9h143q10 0 10 9v16h25v-314z" />
    <glyph glyph-name="uniF12B" unicode="&#xf12b;" horiz-adv-x="384" 
d="M292 292q41 -43 41 -100q0 -58 -41 -99q-42 -42 -100 -42t-99 42q-42 41 -42 99t42 100q41 41 99 41q57 0 100 -41zM56 328q-56 -56 -56 -136t56 -136t136 -56t136 56t56 136t-56 136t-136 56t-136 -56zM290 263l-20 20q-7 7 -14 0l-64 -64l-35 36q-7 7 -14 0l-20 -20
q-3 -3 -3 -8q0 -4 3 -7l62 -62q3 -3 7 -3t7 3l91 91q7 7 0 14z" />
    <glyph glyph-name="uniF12C" unicode="&#xf12c;" horiz-adv-x="342" 
d="M333 300l-160 32h-4l-160 -32q-9 -2 -9 -11v-94v-6v-94q0 -9 9 -11l160 -32h4l160 32q9 2 9 11v94v6v94q0 9 -9 11zM149 150q-17 -36 -52 -36q-30 0 -46 22q-18 21 -18 56q0 34 18 57q17 21 46 21q34 0 51 -35q2 -5 1 -6q-2 -3 -5 -5l-18 -8q-7 -4 -12 4q-6 13 -17 13
t-17 -11q-7 -11 -7 -30t7 -29q6 -12 17 -12q9 0 17 14q2 3 5 5t6 0l19 -8q3 -2 5 -5q1 -3 0 -7zM308 150q-16 -36 -51 -36q-29 0 -47 22q-18 21 -18 56q0 34 18 57q18 21 47 21q33 0 50 -35q2 -5 1 -6q-2 -3 -5 -5l-18 -8q-6 -4 -11 4q-6 13 -17 13q-10 0 -18 -11
q-7 -11 -7 -30t7 -29q7 -12 18 -12q8 0 16 14q2 3 5 5q4 1 7 0l18 -8q3 -2 5 -5q1 -3 0 -7z" />
    <glyph glyph-name="uniF12D" unicode="&#xf12d;" horiz-adv-x="473" 
d="M387 206q-14 50 -52 82q-38 31 -87 31q-71 0 -115 -62q-12 3 -23 3q-46 0 -78 -35q-32 -37 -32 -86q0 -36 18 -66q5 -8 13 -8h414q8 0 12 7q16 23 16 50q0 37 -26 63q-25 25 -60 21z" />
    <glyph glyph-name="uniF12E" unicode="&#xf12e;" horiz-adv-x="470" 
d="M394 166h-92q-9 0 -9 9v86q0 9 9 9h92v91q-1 16 -17 16h-360q-16 0 -17 -16v-288q5 -14 17 -14h59v-35q0 -17 17 -17q10 0 15 8l44 44h225q12 0 17 14v93zM461 245h-133q-9 0 -9 -9v-36q0 -8 9 -8h133q9 0 9 8v36q0 9 -9 9z" />
    <glyph glyph-name="uniF12F" unicode="&#xf12f;" horiz-adv-x="394" 
d="M394 73v288q-1 16 -17 16h-360q-16 0 -17 -16v-288q5 -14 17 -14h59v-35q0 -17 17 -17q10 0 15 8l44 44h225q12 0 17 14zM87 189q-13 0 -21 9q-9 9 -9 25q0 37 34 61q1 0 1 1h1h1q0 -1 1 -1l14 -9q2 -2 2 -3t-2 -3h-1q-20 -11 -24 -31q1 1 6 1q10 0 17 -7q6 -7 6 -17
q0 -11 -7 -18q-8 -8 -19 -8zM154 189q-14 0 -21 9q-8 10 -8 25q0 37 34 61q1 0 1 1h1h1q0 -1 1 -1l14 -9q1 -1 1 -3q0 -1 -2 -3q-20 -11 -25 -31q1 1 7 1q10 0 17 -7q6 -7 6 -17t-8 -18t-19 -8zM235 152h-1v-1l-2 1h-1l-14 9h1q-2 2 -2 3t2 3q20 11 25 31q-1 -1 -7 -1
q-10 0 -16 7q-6 6 -6 17t8 19t18 8q13 0 22 -9q8 -10 8 -25q0 -36 -35 -62zM303 152h-1q0 -1 -1 -1t-1 1h-1l-14 9q-1 1 -1 3q0 1 2 3q20 11 25 31q-1 -1 -7 -1q-10 0 -16 7q-7 7 -7 17q0 11 9 19q8 8 18 8q14 0 21 -9q8 -10 8 -25q0 -38 -34 -62z" />
    <glyph glyph-name="uniF130" unicode="&#xf130;" horiz-adv-x="394" 
d="M394 73v288q-1 16 -17 16h-360q-16 0 -17 -16v-288q5 -14 17 -14h59v-35q0 -17 17 -17q10 0 15 8l44 44h225q12 0 17 14zM305 155l-65 31v-29q0 -12 -13 -12h-110q-12 0 -12 12v120q0 12 12 12h110q13 0 13 -12v-28l65 30v-124z" />
    <glyph glyph-name="uniF131" unicode="&#xf131;" horiz-adv-x="394" 
d="M394 73v288q-1 16 -17 16h-360q-16 0 -17 -16v-288q5 -14 17 -14h59v-35q0 -17 17 -17q10 0 15 8l44 44h225q12 0 17 14z" />
    <glyph glyph-name="uniF132" unicode="&#xf132;" horiz-adv-x="461" 
d="M461 140v217q-2 11 -13 11h-271q-11 0 -13 -11v-68h115q10 0 11 -10v-150h57l33 -33q4 -6 11 -6q13 0 13 13v26h44q11 0 13 11zM253 264h-242q-9 0 -11 -11v-193q1 -10 11 -10h40v-23q0 -11 12 -11q6 0 9 5l30 29h151q10 0 11 10h1v193q-2 11 -12 11z" />
    <glyph glyph-name="uniF133" unicode="&#xf133;" horiz-adv-x="384" 
d="M56 328q-56 -56 -56 -136t56 -136t136 -56t136 56t56 136t-56 136t-136 56t-136 -56zM93 93q-42 41 -42 99t42 100q41 41 99 41q57 0 100 -41q41 -43 41 -100q0 -58 -41 -99q-42 -42 -100 -42t-99 42zM267 281l-100 -60l-3 -3l-61 -101q-3 -7 2 -12q3 -3 7 -3t5 1l101 61
l3 3l60 100q3 7 -2 12t-12 2z" />
    <glyph glyph-name="uniF134" unicode="&#xf134;" horiz-adv-x="384" 
d="M56 328q-56 -56 -56 -136t56 -136t136 -56t136 56t56 136t-56 136t-136 56t-136 -56zM193 51v282q58 0 99 -41t41 -100t-41 -100t-99 -41z" />
    <glyph glyph-name="uniF135" unicode="&#xf135;" horiz-adv-x="378" 
d="M378 313v1q0 13 -13 13h-1h-349h-1q-14 0 -14 -13v-2v-36h378v37zM0 225v-155q0 -13 14 -13h1h350q13 0 13 13v155h-378z" />
    <glyph glyph-name="uniF136" unicode="&#xf136;" horiz-adv-x="419" 
d="M405 84h-37v241v1q0 11 -7 18t-18 7h-241v36q0 14 -14 14h-23q-14 0 -14 -14v-36h-37q-14 0 -14 -14v-23q0 -14 14 -14h37v-241v-1q0 -9 8 -17t17 -8h241v-36q0 -14 14 -14h23q14 0 14 14v36h37q14 0 14 14v23q0 14 -14 14zM102 84v216h215v-216h-215z" />
    <glyph glyph-name="uniF137" unicode="&#xf137;" horiz-adv-x="348" 
d="M348 19v19q0 16 -15 16h-317q-16 0 -16 -16v-19q0 -16 16 -16h317q15 0 15 16zM44 251q-4 4 -11 4q-16 0 -16 -16h-1v-150h1q1 -15 16 -15h282v1q15 0 17 14v2v145v3q0 7 -5 12t-12 5q-5 0 -10 -4h-1q-1 0 -1 -2l-35 -35l-82 81q-5 5 -12 5t-12 -5l-82 -81l-34 35h-1
q-1 0 -1 1zM292 208h-1h1zM33 340q-31 0 -31 -31t31 -31q30 0 30 31t-30 31zM314 278q31 0 31 31t-31 31t-31 -31t31 -31zM176 319q31 0 31 31t-31 31t-31 -31t31 -31z" />
    <glyph glyph-name="uniF138" unicode="&#xf138;" horiz-adv-x="325" 
d="M0 375l30 -330l133 -36l132 36l30 330h-325zM260 268l-98 -42h94l-11 -123l-82 -25h-1l-83 25l-5 62h41l3 -32l44 -11l46 13l3 52h-49h-91l-3 39l94 40l6 2h-6h-98l-5 40h103h102z" />
    <glyph glyph-name="uniF139" unicode="&#xf139;" horiz-adv-x="422" 
d="M124 323h-1q0 8 -6 16q-7 6 -16 6h-80q-9 0 -15 -6q-6 -8 -6 -16v-262q0 -9 6 -15t15 -6v-1h80q9 0 16 7q7 6 7 15v262zM39 75q-9 9 -9 22t9 23q9 9 23 9t23 -9q9 -11 9 -23q0 -13 -9 -22q-9 -10 -23 -10t-23 10zM98 180h-72v139h72v-139zM273 61v262q0 8 -6 16
q-7 6 -16 6h-81q-9 0 -15 -6q-6 -8 -6 -16v-262q0 -9 6 -15t15 -6v-1h81q9 0 16 7q6 6 6 15zM189 75q-10 9 -10 22t10 23q9 9 22 9t23 -9q9 -11 9 -23q0 -13 -9 -22q-10 -10 -23 -10t-22 10zM247 180h-72v139h72v-139zM422 61v262q0 8 -6 16q-8 6 -16 6h-81q-9 0 -15 -6
q-6 -8 -6 -16v-262q0 -9 6 -15t15 -6v-1h81q9 0 16 7q6 6 6 15zM337 75q-9 9 -9 22t9 23q9 9 23 9t23 -9q9 -11 9 -23q0 -13 -9 -22q-9 -10 -23 -10t-23 10zM396 180h-72v139h72v-139z" />
    <glyph glyph-name="uniF13A" unicode="&#xf13a;" horiz-adv-x="348" 
d="M348 55v274q0 15 -11 26q-9 9 -26 11h-274q-15 0 -26 -11t-11 -26v-274q0 -15 11 -26t26 -11h274q15 0 26 11t11 26zM62 82q-11 11 -11 25q0 15 11 26q10 10 25 10q16 0 26 -10t10 -26q0 -15 -10 -25q-11 -11 -26 -11q-14 0 -25 11zM62 254q-11 11 -11 25q0 15 11 26
q10 10 25 10q16 0 26 -10t10 -26q0 -15 -10 -25q-11 -11 -26 -11q-14 0 -25 11zM149 167q-11 11 -11 25q0 15 11 26q10 10 25 10q16 0 26 -10t10 -26q0 -15 -10 -25q-11 -11 -26 -11q-14 0 -25 11zM236 80q-11 11 -11 25q0 15 11 26q10 10 25 10q16 0 26 -10t10 -26
q0 -15 -10 -25q-11 -11 -26 -11q-14 0 -25 11zM236 254q-11 11 -11 25q0 15 11 26q10 10 25 10q16 0 26 -10t10 -26q0 -15 -10 -25q-11 -11 -26 -11q-14 0 -25 11z" />
    <glyph glyph-name="uniF13B" unicode="&#xf13b;" horiz-adv-x="348" 
d="M348 55v274q0 15 -11 26q-9 9 -26 11h-274q-15 0 -26 -11t-11 -26v-274q0 -15 11 -26t26 -11h274q15 0 26 11t11 26zM62 82q-11 11 -11 25q0 15 11 26q10 10 25 10q16 0 26 -10t10 -26q0 -15 -10 -25q-11 -11 -26 -11q-14 0 -25 11zM62 254q-11 11 -11 25q0 15 11 26
q10 10 25 10q16 0 26 -10t10 -26q0 -15 -10 -25q-11 -11 -26 -11q-14 0 -25 11zM236 80q-11 11 -11 25q0 15 11 26q10 10 25 10q16 0 26 -10t10 -26q0 -15 -10 -25q-11 -11 -26 -11q-14 0 -25 11zM236 254q-11 11 -11 25q0 15 11 26q10 10 25 10q16 0 26 -10t10 -26
q0 -15 -10 -25q-11 -11 -26 -11q-14 0 -25 11z" />
    <glyph glyph-name="uniF13C" unicode="&#xf13c;" horiz-adv-x="348" 
d="M348 55v274q0 15 -11 26q-9 9 -26 11h-274q-15 0 -26 -11t-11 -26v-274q0 -15 11 -26t26 -11h274q15 0 26 11t11 26zM147 165q-12 11 -12 27t12 28q11 11 27 11q15 0 28 -11q11 -13 11 -28q0 -16 -11 -27q-12 -12 -28 -12t-27 12z" />
    <glyph glyph-name="uniF13D" unicode="&#xf13d;" horiz-adv-x="348" 
d="M348 55v274q0 15 -11 26q-9 9 -26 11h-274q-15 0 -26 -11t-11 -26v-274q0 -15 11 -26t26 -11h274q15 0 26 11t11 26zM62 82q-11 11 -11 25q0 15 11 26q10 10 25 10q16 0 26 -10t10 -26q0 -15 -10 -25q-11 -11 -26 -11q-14 0 -25 11zM62 167q-11 11 -11 25q0 15 11 26
q10 10 25 10q16 0 26 -10t10 -26q0 -15 -10 -25q-11 -11 -26 -11q-14 0 -25 11zM62 254q-11 11 -11 25q0 15 11 26q10 10 25 10q16 0 26 -10t10 -26q0 -15 -10 -25q-11 -11 -26 -11q-14 0 -25 11zM236 80q-11 11 -11 25q0 15 11 26q10 10 25 10q16 0 26 -10t10 -26
q0 -15 -10 -25q-11 -11 -26 -11q-14 0 -25 11zM236 167q-11 11 -11 25q0 15 11 26q10 10 25 10q16 0 26 -10t10 -26q0 -15 -10 -25q-11 -11 -26 -11q-14 0 -25 11zM236 254q-11 11 -11 25q0 15 11 26q10 10 25 10q16 0 26 -10t10 -26q0 -15 -10 -25q-11 -11 -26 -11
q-14 0 -25 11z" />
    <glyph glyph-name="uniF13E" unicode="&#xf13e;" horiz-adv-x="348" 
d="M348 55v274q0 15 -11 26q-9 9 -26 11h-274q-15 0 -26 -11t-11 -26v-274q0 -15 11 -26t26 -11h274q15 0 26 11t11 26zM62 254q-11 11 -11 25q0 15 11 26q10 10 25 10q16 0 26 -10t10 -26q0 -15 -10 -25q-11 -11 -26 -11q-14 0 -25 11zM149 167q-11 11 -11 25q0 15 11 26
q10 10 25 10q16 0 26 -10t10 -26q0 -15 -10 -25q-11 -11 -26 -11q-14 0 -25 11zM236 80q-11 11 -11 25q0 15 11 26q10 10 25 10q16 0 26 -10t10 -26q0 -15 -10 -25q-11 -11 -26 -11q-14 0 -25 11z" />
    <glyph glyph-name="uniF13F" unicode="&#xf13f;" horiz-adv-x="348" 
d="M348 55v274q0 15 -11 26q-9 9 -26 11h-274q-15 0 -26 -11t-11 -26v-274q0 -15 11 -26t26 -11h274q15 0 26 11t11 26zM62 254q-11 11 -11 25q0 15 11 26q10 10 25 10q16 0 26 -10t10 -26q0 -15 -10 -25q-11 -11 -26 -11q-14 0 -25 11zM236 80q-11 11 -11 25q0 15 11 26
q10 10 25 10q16 0 26 -10t10 -26q0 -15 -10 -25q-11 -11 -26 -11q-14 0 -25 11z" />
    <glyph glyph-name="uniF140" unicode="&#xf140;" horiz-adv-x="333" 
d="M333 151v144q0 3 -2 5l-50 50q-1 1 -5 1h-185h-1q-13 0 -13 -12v-1v-43v-144q0 -13 13 -13h1h51l3 -3v-1l50 -86q7 -15 26 -15q12 0 21 9q8 8 8 20v17v1v58h71q12 0 12 13zM51 178v138q0 13 -13 13l-1 -1h-24q-13 0 -13 -12v-141q2 -12 13 -12h25v0q13 0 13 13v2z" />
    <glyph glyph-name="uniF141" unicode="&#xf141;" horiz-adv-x="447" 
d="M447 90v204q0 8 -6 14t-14 6h-407q-8 0 -14 -6t-6 -14v-204q0 -8 6 -14t14 -6h407q8 0 14 6t6 14zM371 266v18q0 4 4 4h42h1q4 0 4 -4v-43q0 -4 -4 -4h-1h-17q-4 0 -4 4v21h-21q-4 0 -4 4zM77 118v-18q0 -4 -4 -4h-1h-42q-4 0 -4 4v43q0 4 4 4h17q4 0 4 -4v-21h21h1
q4 0 4 -4zM77 284v-17q0 -5 -4 -5h-22v-21q0 -4 -4 -4h-17q-4 0 -4 4v43q0 4 4 4h43q4 0 4 -4zM156 124q-28 28 -28 68t28 68t68 28t68 -28t28 -68t-28 -68t-68 -28t-68 28zM422 143v-43q0 -4 -4 -4h-43q-4 0 -4 4v17q0 5 4 5h21v21q0 4 4 4h18q4 0 4 -4zM294 192
q0 28 -20 50q-21 21 -50 21t-50 -21t-21 -50q0 -23 13 -40q0 7 4 8l29 13l11 5q-8 5 -12 14t-4 17t1 10q7 24 29 24q21 0 28 -25q1 -2 1 -9q0 -9 -3 -16q-4 -9 -12 -14l12 -6l28 -13q4 -1 4 -8q12 17 12 40z" />
    <glyph glyph-name="uniF142" unicode="&#xf142;" horiz-adv-x="209" 
d="M126 219v51q26 -6 47 -24q1 -1 4 -1q2 0 4 2h1l21 31q2 2 2 4t-2 4q-30 28 -77 33v30q0 6 -6 6h-23q-6 0 -6 -6v-29q-37 -4 -59 -25t-22 -50q0 -35 22 -51q25 -18 59 -25v-58q-32 5 -59 32l-1 1q-1 1 -3 1q-4 0 -5 -3l-22 -32q-1 -1 -1 -3q0 -3 2 -5q34 -34 89 -39v-28
q0 -6 6 -6h23q6 0 6 6v28q40 5 62 26q21 21 21 53q0 24 -14 41q-12 14 -29 23q-15 7 -40 13zM91 273v-46q-26 9 -26 22q0 21 26 24zM126 111v50q29 -9 29 -24q0 -20 -29 -26z" />
    <glyph glyph-name="uniF143" unicode="&#xf143;" horiz-adv-x="404" 
d="M379 194h-90q-19 0 -24 -17q-7 -21 -24 -33q-16 -13 -39 -13t-39 13q-17 12 -24 33q-5 17 -24 17h-90q-11 0 -18 -7t-7 -18v-144q0 -11 7 -18t18 -7h354q11 0 18 7t7 18v144q0 11 -7 18t-18 7zM127 279l70 -98q1 -3 5 -3t6 3l69 98q2 6 1 7q-2 3 -6 3h-33v88q0 7 -7 7
h-60q-7 0 -7 -7v-88h-33q-4 0 -6 -3q-1 -1 1 -7z" />
    <glyph glyph-name="uniF144" unicode="&#xf144;" horiz-adv-x="382" 
d="M13 141h357q12 0 12 13q0 6 -4 9l-178 177q-3 5 -9 5q-8 0 -11 -5l-176 -177q-4 -4 -4 -9q0 -13 13 -13zM382 52v51q0 13 -13 13l-357 -1q-12 -1 -12 -13v-49v-1q0 -12 12 -13h357q13 0 13 13z" />
    <glyph glyph-name="uniF145" unicode="&#xf145;" horiz-adv-x="493" 
d="M389 393h-376q-13 0 -13 -13v-376q0 -13 13 -13v0h376q13 0 13 13v376q0 13 -13 13zM51 341h299v-298h-299v298zM490 120h-15v40q0 3 -3 3h-27q-3 0 -3 -3v-40h-15q-2 0 -3 -1t1 -3l31 -44q2 -2 3 -2l2 2l31 44q2 2 1 3t-3 1zM427 264h15v-40q0 -3 3 -3h27q3 0 3 3v40h15
q2 0 3 1t0 3l-32 44l-2 2q-1 0 -3 -2l-31 -44q-2 -2 -1 -3t3 -1zM109 284q0 -25 25 -25t25 25q0 26 -25 26t-25 -26zM182 252h-91q-12 0 -12 -12v-72q0 -4 3 -7q8 -7 15 0q4 4 4 7v50q0 4 3 4t3 -4v-32v-99q0 -13 13 -13q12 0 12 13v66q0 4 4 4q3 0 3 -4v-66q0 -13 13 -13
q12 0 12 13v66v33v32q0 4 4 4q3 0 3 -4v-50q0 -4 3 -7q8 -8 16 0q3 3 3 7v72q0 10 -11 12zM238 284q0 -25 26 -25q25 0 25 25q0 26 -25 26q-26 0 -26 -26zM312 252h-91q-12 0 -12 -12v-72q0 -4 3 -7q8 -7 15 0q3 3 3 7v50q0 4 4 4q3 0 3 -4v-32v-99q0 -13 13 -13q12 0 12 13
v66q0 4 4 4q3 0 3 -4v-66q0 -13 13 -13q12 0 12 13v66v33v32q0 4 4 4q3 0 3 -4v-50q0 -4 3 -7q8 -7 15 0q3 3 3 7v72q0 11 -10 12z" />
    <glyph glyph-name="uniF146" unicode="&#xf146;" horiz-adv-x="283" 
d="M280 125h-1l-40 19q-6 2 -7 -2l-1 -1q-21 -39 -64 -39q-53 0 -76 45h101q6 0 6 6v21q0 6 -6 6h-111v12q0 10 1 13h110v0q6 0 6 6v21q0 6 -6 6h-100q23 44 75 44q43 0 65 -40q1 -4 7 -2l40 19h1q4 3 2 8v0q-37 67 -115 67q-50 0 -88 -26t-52 -70h-21q-6 0 -6 -6v-21
q0 -6 6 -6h15v-13v-12h-15q-6 0 -6 -6v-21q0 -6 6 -6v1h21q13 -45 52 -71q37 -27 88 -27q78 0 115 67v0q2 5 -2 8z" />
    <glyph glyph-name="uniF147" unicode="&#xf147;" horiz-adv-x="365" 
d="M359 204l-86 86v-1q-39 36 -91 36q-58 0 -99 -45l-80 -79q-3 -3 -3 -9t5 -11l87 -87v1q39 -36 90 -36q60 0 99 44l79 79l1 1q4 4 4 10q0 8 -6 11zM118 128q-26 26 -26 64t26 64t64 26t64 -26t26 -64t-26 -64t-64 -26t-64 26zM139 192q0 -44 43 -44q44 0 44 44
q0 43 -44 43q-43 0 -43 -43z" />
    <glyph glyph-name="uniF148" unicode="&#xf148;" horiz-adv-x="372" 
d="M372 192q0 6 -5 8l-191 111q-2 2 -7 2q-8 0 -8 -8v-78l-146 84q-2 2 -6 2q-9 0 -9 -8v-226q0 -8 9 -8q4 0 6 2l146 84v-78q0 -8 8 -8q5 0 7 2l192 111v1q4 3 4 7z" />
    <glyph glyph-name="uniF149" unicode="&#xf149;" horiz-adv-x="268" 
d="M229 163q39 39 39 95t-39 95t-95 39t-95 -39t-39 -95t39 -95q30 -30 69 -37v-41h-27q-4 0 -6 -2t-2 -6v-35q0 -8 8 -8h27v-34q0 -6 6 -8h2h35q8 0 8 8v34h28q8 0 8 8v35q0 4 -2 6t-6 2h-28v41q40 8 70 37zM76 200q-25 24 -25 58t25 59q24 24 58 24t59 -24q24 -25 24 -59
t-24 -58q-25 -25 -59 -25t-58 25z" />
    <glyph glyph-name="uniF14A" unicode="&#xf14a;" horiz-adv-x="227" 
d="M110 303q42 0 42 42t-42 42t-42 -42t42 -42zM227 171l-28 105l-1 2q-4 13 -19 13v1h-132v-1q-14 0 -18 -13l-1 -2l-28 -105v-3q0 -7 5 -12q6 -6 13 -6q11 0 16 12h1l20 76q2 5 6 5q3 0 5 -5v-1v-1l-33 -123q-1 -1 -1 -3v-1q0 -10 10 -10h24v-81q0 -8 6 -14q7 -7 15 -7
q7 0 14 7q6 6 6 14v81h12v-81q0 -8 6 -14q7 -7 15 -7q6 0 10 3q5 3 8 8t3 10v81h24q10 0 10 10h-1h1l-1 1q0 2 -1 3l-32 122v2q0 6 5 6q4 0 6 -5l20 -76q4 -12 17 -12q5 0 9 3q4 1 6 6q3 5 3 9v3z" />
    <glyph glyph-name="uniF14B" unicode="&#xf14b;" horiz-adv-x="410" 
d="M410 334q0 12 -9 23q-8 8 -23 10h-343h-2q-13 0 -23 -9q-10 -10 -10 -24q0 -17 12 -26l155 -154v-96q0 -10 9 -15l40 -23l1 -1q8 -2 9 -2q17 0 17 17v2v118l156 155q11 9 11 25z" />
    <glyph glyph-name="uniF14C" unicode="&#xf14c;" horiz-adv-x="411" 
d="M100 308h31v26h148v-27h31v47q0 12 -12 12h-185q-13 0 -13 -12v-1v-45zM76 18h259v262h-259v-262zM128 130v37q0 4 4 4h52v52q0 4 4 4h37q4 0 4 -4v-52h52q4 0 4 -4v-37q0 -1 -1 -2t-3 -1h-52v-53q0 -1 -2 -3q-1 -1 -2 -1h-37q-2 0 -3 1t-1 3v53h-52q-2 0 -3 1t-1 2z
M51 280h-31q-8 0 -14 -6q-6 -8 -6 -15v-220v-1q0 -8 6 -14t14 -6h31v262zM411 38v222q0 8 -6 14t-14 6h-31v-262h31q8 0 14 6t6 14z" />
    <glyph glyph-name="uniF14D" unicode="&#xf14d;" horiz-adv-x="372" 
d="M364 325h-3q-26 -14 -58 -14q-57 0 -95 45q-32 31 -80 31q-45 0 -77 -29q-7 15 -24 15q-11 0 -19 -8t-8 -19v-322q0 -11 8 -19t19 -8t19 8t8 19v145q25 13 56 13q58 0 96 -45q32 -31 79 -31q49 0 84 36q3 2 3 6v169q0 8 -8 8z" />
    <glyph glyph-name="uniF14E" unicode="&#xf14e;" horiz-adv-x="425" 
d="M397 325h-188q-5 6 -11 13t-8.5 10.5t-3.5 4.5q-6 10 -15 10h-74q-9 0 -13 -6l-26 -32h-30q-11 0 -19 -8q-9 -9 -9 -20v-248q0 -11 9 -19q7 -9 19 -9h369q11 0 20 9q8 8 8 19v248q0 10 -8 20q-10 8 -20 8zM374 155v-31q0 -1 -1 -2t-2 -1h-45v-45q0 -2 -1 -3t-3 -1h-31
q-2 0 -3 1t-1 3v45h-45q-1 0 -2 1t-1 2v31q0 4 3 4h45v45q0 3 4 3h31q4 0 4 -3v-45h45q3 0 3 -4z" />
    <glyph glyph-name="uniF14F" unicode="&#xf14f;" horiz-adv-x="425" 
d="M329 164q0 7 -5 12t-12 5t-12 -5t-5 -12v-15h34v15zM397 325h-188q-5 6 -11 13t-8.5 10.5t-3.5 4.5q-6 10 -15 10h-74q-9 0 -13 -6l-26 -32h-30q-11 0 -19 -8q-9 -9 -9 -20v-248q0 -11 9 -19q7 -9 19 -9h369q11 0 20 9q8 8 8 19v248q0 10 -8 20q-10 8 -20 8zM374 144v-67
q0 -5 -5 -5h-112q-5 0 -5 5v67q0 5 5 5h6h8v15q0 16 12 30q12 12 29 12q16 0 30 -12q12 -14 12 -30v-15h9h6q5 0 5 -5z" />
    <glyph glyph-name="uniF150" unicode="&#xf150;" horiz-adv-x="425" 
d="M397 325h-188q-5 6 -11 13t-8.5 10.5t-3.5 4.5q-6 10 -15 10h-74q-9 0 -13 -6l-26 -32h-30q-11 0 -19 -8q-9 -9 -9 -20v-248q0 -11 9 -19q7 -9 19 -9h369q11 0 20 9q8 8 8 19v248q0 10 -8 20q-10 8 -20 8z" />
    <glyph glyph-name="uniF151" unicode="&#xf151;" horiz-adv-x="264" 
d="M22 242q22 0 22 22t-22 22t-22 -22t22 -22zM168 368q0 -44 45 -44t45 44q0 45 -45 45t-45 -45zM120 326q28 0 28 28t-28 28t-28 -28t28 -28zM249 69q-11 17 -11 39q0 19 9 35q17 26 17 59q0 26 -14 52q-15 25 -38 39q-26 14 -53 14q-43 0 -74 -31t-31 -74q0 -13 5 -33
q3 -11 11 -25l-1 -1l76 -131q6 -17 22 -30q14 -11 35 -11q26 0 43 17t17 43q0 22 -13 38zM39 311q0 -22 22 -22t22 22q0 23 -22 23t-22 -23z" />
    <glyph glyph-name="uniF152" unicode="&#xf152;" horiz-adv-x="356" 
d="M325 59l-15 8q-1 1 -3 -1l-6 -12h-1v-1q0 -2 1 -2l16 -8h1q2 0 2 1l6 12v1q0 2 -1 2zM325 328l-15 9q-1 1 -3 -1l-7 -11v-2q0 -1 1 -1l15 -9l2 -1q1 0 1 2l7 11v1q0 2 -1 2zM295 75l-18 9v252l9 -5l1 -1q2 0 2 1l6 12q0 1 1 1q0 2 -1 2l-7 3l-7 5q-5 3 -9 -1l-62 -34
l-62 34l-1 1h-2h-2h-2h-2v-1h-1l-62 -34l-62 34q-7 2 -9 1q-5 -2 -5 -7v-274q0 -5 4 -6l67 -37h1q1 -1 4 -1t4 1h1l62 34l63 -34q1 -1 4 -1q4 0 5 1l62 34l5 -2l4 -3h1q2 0 2 1l7 12q1 1 -1 3zM76 46l-58 31v256l58 -31v-256zM210 46l-67 36v256l67 -36v-256zM354 160h-13
q-3 0 -3 -3v-27q0 -2 3 -2h13q2 0 2 2v27q0 3 -2 3zM354 52h-13h-1l-2 -1l-1 -1l-6 -12v-1q0 -2 1 -2l8 -4l6 -2q10 0 10 11v10q0 2 -2 2zM349 314l-9 5q-1 1 -3 -1l-6 -11v-2q0 -1 1 -1l6 -4v-8q0 -2 3 -2h13q2 0 2 2v10q0 8 -7 12zM354 267h-13q-3 0 -3 -2v-27q0 -2 3 -2
h13q2 0 2 2v27q0 2 -2 2zM354 106h-13q-3 0 -3 -2v-27q0 -3 3 -3h13q2 0 2 3v27q0 2 -2 2zM354 213h-13q-3 0 -3 -2v-27q0 -2 3 -2h13q2 0 2 2v27q0 2 -2 2z" />
    <glyph glyph-name="uniF153" unicode="&#xf153;" horiz-adv-x="427" 
d="M193 140h-72q-8 0 -8 -8v-112q0 -8 8 -8h72q8 0 8 8v112q0 8 -8 8zM306 372h-72q-8 0 -8 -8v-344q0 -8 8 -8h72q8 0 8 8v344q0 8 -8 8zM420 267h-73q-8 0 -8 -7v-240q0 -8 8 -8h73q7 0 7 8v240q0 7 -7 7zM80 267h-72q-8 0 -8 -7v-240q0 -8 8 -8h72q8 0 8 8v240q0 7 -8 7z
" />
    <glyph glyph-name="uniF154" unicode="&#xf154;" horiz-adv-x="387" 
d="M380 238h-372q-8 0 -8 -8v-77q0 -8 8 -8h372q7 0 7 8v77q0 8 -7 8zM226 357h-218q-8 0 -8 -8v-77q0 -8 8 -8h218q5 2 5 8v77q0 6 -5 8zM275 120h-267q-8 0 -8 -8v-77q0 -8 8 -8h267q8 0 8 8v77q0 8 -8 8z" />
    <glyph glyph-name="uniF155" unicode="&#xf155;" horiz-adv-x="380" 
d="M212 382q-7 0 -7 -7v-1v-161q0 -6 7 -6h161h1q6 0 6 6q-1 70 -49 119q-49 48 -119 50zM341 172v2q0 7 -7 7h-148q-6 0 -6 7v147h-1l1 1q0 7 -7 7h-1h-1q-71 0 -121 -50q-50 -52 -50 -121q0 -70 50 -120t121 -50t121 50q49 49 49 120z" />
    <glyph glyph-name="uniF156" unicode="&#xf156;" horiz-adv-x="410" 
d="M25 37h359q11 0 19 8q7 7 7 17v260q0 11 -7 18t-19 7h-359q-11 0 -18 -7t-7 -18v-260q0 -10 7 -17q8 -8 18 -8zM359 87h-309v210h309v-210zM162 111h2q8 1 13 8l40 63l28 -59q5 -11 16 -11t16 9l70 123q9 15 -7 24t-25 -7l-52 -92l-27 58q-4 10 -15 10q-10 0 -16 -8
l-46 -72l-21 21q-12 12 -24 1l-44 -36q-13 -10 -2 -25q10 -13 25 -2l31 25l25 -25q5 -5 13 -5z" />
    <glyph glyph-name="uniF157" unicode="&#xf157;" horiz-adv-x="399" 
d="M148 320l60 -60v-1h1l6 -2q11 0 11 10q0 6 -5 9l-60 60q-3 3 -8 3q-10 0 -10 -10q0 -6 5 -9zM215 111v129h-137q-1 -1 -3 -1l-56 33q-1 1 -6 1q-13 0 -13 -13q0 -8 6 -11l57 -33q-4 -17 -4 -34q0 -45 14 -56l-32 -56q-4 -5 -4 -11q0 -7 6 -12q5 -6 12 -6q10 0 14 7h1
l37 65l38 -65q4 -7 14 -7q7 0 13 6q5 5 5 12q0 6 -4 11l-24 42q9 -1 41 -1h25zM337 70l-31 55q10 4 13 32l-83 83v-116l-31 -54q-4 -5 -4 -11q0 -7 6 -12q5 -6 12 -6q10 0 14 7l38 65l37 -65h1q4 -7 14 -7q7 0 13 6q5 5 5 12q0 6 -4 11zM399 235q0 7 -5 10l-20 20v21
q0 13 -11 18l-26 15v-1q-6 3 -7 3l-13 22l-26 -45l-42 -42l72 -72q0 13 -1 16l14 14h40h10l11 11q4 4 4 10z" />
    <glyph glyph-name="uniF158" unicode="&#xf158;" horiz-adv-x="321" 
d="M252 196q0 44 -30 75q-31 31 -74 31t-74 -31t-31 -75q0 -7 5 -12t12 -5t12 5t5 12q0 28 21 51q21 21 50 21t50 -21q20 -23 20 -51q0 -12 -3 -23q-10 -19 -21 -32l-4 -4q-20 -24 -18 -48v-37v-2q-3 -9 -23 -11q-7 0 -12 -5q-4 -4 -4 -13q0 -6 5 -11t12 -5q49 1 55 40
q2 14 1 45q0 14 10 24q0 1 2 3l2 2q8 9 25 38q0 1 1 2v1q6 18 6 36zM172 194q0 -15 14 -15t14 15q0 22 -15 37t-37 15t-37 -15q-16 -15 -16 -37q0 -15 14 -15q6 0 11 5q4 4 4 10q0 10 7 17t17 7t17 -7t7 -17zM75 142l-70 -71q-5 -5 -5 -11q0 -7 5 -12q4 -4 11 -4t11 4l70 71
q5 5 5 11q0 7 -5 12q-11 11 -22 0zM207 334h-7q-5 0 -5 -7v-11q0 -6 5 -6h7q19 0 32 -13t13 -31v-7q0 -6 6 -6h12q6 0 6 6v7q0 28 -20 48t-49 20zM321 259v7q0 47 -33 80q-34 33 -81 33h-7q-5 0 -5 -6v-12q0 -6 5 -6h7q36 0 64 -26q26 -26 26 -63v-7q0 -6 7 -6h11q6 0 6 6z
" />
    <glyph glyph-name="uniF159" unicode="&#xf159;" horiz-adv-x="409" 
d="M295 379q-58 0 -91 -44q-33 44 -90 44q-47 0 -80 -33q-34 -34 -34 -81q0 -30 11 -60q11 -31 20 -43q2 -3 11.5 -15.5t16.5 -21.5l6 -7q25 -32 132 -111q2 -2 7 -2q6 0 8 2q106 79 132 111l6 7q7 9 16.5 21.5t11.5 15.5q11 14 21 43q10 27 10 60q0 47 -33 81
q-34 33 -81 33z" />
    <glyph glyph-name="uniF15A" unicode="&#xf15a;" horiz-adv-x="353" 
d="M348 254l-166 129q-8 6 -16 0l-161 -129q-5 -3 -5 -10v-233q0 -13 13 -13h96q12 0 12 13v143h111v-143q0 -13 12 -13h96q13 0 13 13v233q0 7 -5 10z" />
    <glyph glyph-name="uniF15B" unicode="&#xf15b;" horiz-adv-x="300" 
d="M0 362l27 -306l123 -34l123 34l27 306h-300zM243 289l-2 -19v-8h-1h-90h-53l3 -38h50h77h10l-1 -11l-9 -98v-7l-77 -21l-77 21l-5 59h17h20l3 -30l42 -11l42 11l4 49h-46h-84l-9 103l-1 11h94h94z" />
    <glyph glyph-name="uniF15C" unicode="&#xf15c;" horiz-adv-x="355" 
d="M337 370h-320q-17 0 -17 -17v-16q0 -17 17 -17h320q18 0 18 17v16q0 17 -18 17zM337 64h-320q-17 0 -17 -17v-16q0 -17 17 -17h320q18 0 18 17v16q0 17 -18 17zM355 133v16q0 17 -18 17h-198q-18 0 -18 -17v-16q0 -17 18 -17h198q18 0 18 17zM355 234v16q0 8 -5 13
q-7 5 -13 5h-198q-7 0 -12 -5q-6 -5 -6 -13v-16q0 -17 18 -17h198q18 0 18 17zM0 192q0 -3 2 -3l63 -36q1 -1 2 -1q3 0 3 3v74q0 3 -3 3q-1 0 -2 -1l-64 -36v-1q-1 -1 -1 -2z" />
    <glyph glyph-name="uniF15D" unicode="&#xf15d;" horiz-adv-x="355" 
d="M337 370h-320q-17 0 -17 -17v-16q0 -17 17 -17h320q18 0 18 17v16q0 17 -18 17zM337 64h-320q-17 0 -17 -17v-16q0 -17 17 -17h320q18 0 18 17v16q0 17 -18 17zM355 133v16q0 17 -18 17h-199q-17 0 -17 -17v-16q0 -17 17 -17h199q18 0 18 17zM355 234v16q0 8 -5 13
q-7 5 -13 5h-199q-17 0 -17 -18v-16q0 -17 17 -17h199q18 0 18 17zM3 152q1 0 2 1l64 36v1q1 1 1 2q0 3 -2 3l-63 36q-1 1 -2 1q-3 0 -3 -3v-74q0 -3 3 -3z" />
    <glyph glyph-name="uniF15E" unicode="&#xf15e;" horiz-adv-x="384" 
d="M56 328q-56 -56 -56 -136t56 -136t136 -56t136 56t56 136t-56 136t-136 56t-136 -56zM212 209v-124q0 -6 -7 -6h-26q-7 0 -7 6v124q0 7 7 7h26q7 0 7 -7zM176 251q-7 6 -7 16t7 17q6 6 16 6t17 -6q6 -7 6 -17t-6 -16q-7 -7 -17 -7t-16 7z" />
    <glyph glyph-name="uniF15F" unicode="&#xf15f;" horiz-adv-x="108" 
d="M108 320v4q0 13 -13 13h-24q-13 0 -13 -13l-58 -261v-3q0 -12 12 -13h25q11 0 13 12z" />
    <glyph glyph-name="uniF160" unicode="&#xf160;" horiz-adv-x="445" 
d="M445 218q0 4 -2 6q-3 3 -7 3h-27h-12h-163q-10 38 -42 64q-31 25 -73 25q-49 0 -84 -35t-35 -84t35 -84t84 -35q43 0 77 29q33 30 40 70h45v-26v-23v-16q0 -9 9 -9h1h31q10 0 10 9v39v26h25v-79v-21q0 -9 10 -9h31h1q9 0 9 9v39v61h1h27q5 0 7 2t2 7v32zM71 148
q-20 20 -20 48t20 48t48 20q29 0 49 -20q19 -19 19 -48t-19 -48q-20 -20 -49 -20q-28 0 -48 20z" />
    <glyph glyph-name="uniF161" unicode="&#xf161;" horiz-adv-x="488" 
d="M60 101h368q10 0 18 8q7 7 7 18v226q0 11 -7 18t-18 7h-368q-11 0 -18 -7q-8 -8 -8 -18v-226q0 -10 8 -18t18 -8zM85 327h318v-175h-318v175zM476 76h-464q-4 0 -8 -4t-4 -8v-28q0 -5 3 -8l17 -18q4 -4 8 -4h430q5 0 8 3l18 18q4 4 4 9v28q0 4 -4 8t-8 4zM288 47v-12
q0 -3 -2 -3h-84q-3 0 -3 3v12q0 2 3 2h84q2 0 2 -2z" />
    <glyph glyph-name="uniF162" unicode="&#xf162;" horiz-adv-x="381" 
d="M76 173h229v119h-229v-119zM82 92h57v56h-57v-56zM246 92h57v56h-57v-56zM164 92h57v56h-57v-56zM358 368h-335q-10 0 -16 -6q-7 -7 -7 -17v-307q2 -10 8 -15q6 -7 15 -7h335q9 0 16 7q5 5 7 15v307q0 9 -6 17q-7 6 -17 6zM330 67h-279v250h279v-250z" />
    <glyph glyph-name="uniF163" unicode="&#xf163;" horiz-adv-x="426" 
d="M323 306l45 45q6 5 0 11l-10 10q-6 6 -11 0l-45 -45q-5 -5 0 -10l11 -11q5 -5 10 0zM206 349h14q8 0 8 7v64q0 8 -8 8h-14q-8 0 -8 -8v-64q0 -7 8 -7zM426 228v15q0 8 -7 8h-64q-7 0 -7 -8v-15q0 -7 7 -7h64q7 0 7 7zM322 215q0 45 -32 77t-77 32t-77 -32t-32 -77
q0 -34 20 -63q26 -40 28 -96q1 -4 6 -4h1h108h1q4 0 7 5q1 58 29 99q18 29 18 59zM268 -12h-1h-108h-1q-8 0 -8 -7v-17q0 -8 8 -8h1h108h1q7 0 7 8v17q0 7 -7 7zM268 37h-1h-108h-1q-8 0 -8 -8v-17q0 -8 8 -8l1 1v-1h108v1l1 -1q7 0 7 8v17q0 8 -7 8zM71 245h-64q-7 0 -7 -8
v-14q0 -8 7 -8h64q8 0 8 8v14q0 8 -8 8zM60 354l46 -46q4 -4 10 1l11 10q5 5 0 10l-45 46q-6 5 -11 0l-11 -11q-5 -5 0 -10z" />
    <glyph glyph-name="uniF164" unicode="&#xf164;" horiz-adv-x="333" 
d="M333 67v1q-1 0 -1 1v138q0 13 -12 13h-1h-25q-12 0 -12 -13v-141q2 -11 12 -11v-1h26v0q13 0 13 13zM256 46v43v144q0 13 -13 13h-1h-51q-1 0 -1 2l-1 1l-51 87q-8 15 -26 15q-12 0 -20 -8q-9 -9 -9 -21v-17v-1v-58h-70q-13 0 -13 -13v-144q0 -3 2 -5l50 -50q1 -1 5 -1
h185h1q13 0 13 12v1zM15 89l1 -1z" />
    <glyph glyph-name="uniF165" unicode="&#xf165;" horiz-adv-x="353" 
d="M275 146l52 52q27 31 26 71q-2 42 -30 70q-29 29 -69 30q-41 0 -71 -27l-52 -51q-15 -15 -22 -32q-15 -6 -27 -18v1l-52 -52q-30 -30 -30 -72q0 -43 30 -73t73 -30q42 0 72 30l51 52q10 10 18 28q17 7 31 21zM177 120l-37 -38q-15 -15 -36 -15q-22 0 -37 15t-15 37
q0 21 15 36l37 38q6 -26 27 -47q20 -20 46 -26zM201 168q-19 2 -33 15t-15 33q19 -2 33 -15t15 -33zM290 232l-3 -3l-38 -38q-6 26 -27 47q-20 20 -46 26l38 38l3 3q15 13 36 12q21 -2 34 -15t15 -34t-12 -36z" />
    <glyph glyph-name="uniF166" unicode="&#xf166;" horiz-adv-x="431" 
d="M414 345h-320q-17 0 -17 -18v-16q0 -17 17 -17h320q17 0 17 17v16q0 18 -17 18zM414 217h-320q-17 0 -17 -17v-16q0 -17 17 -17h320q17 0 17 17v16q0 17 -17 17zM414 90h-320q-17 0 -17 -17v-16q0 -18 17 -18h320q17 0 17 18v16q0 17 -17 17zM0 319q0 -25 26 -25
q25 0 25 25q0 26 -25 26q-26 0 -26 -26zM0 197q0 -25 26 -25q25 0 25 25q0 26 -25 26q-26 0 -26 -26zM0 65q0 -26 26 -26q25 0 25 26q0 25 -25 25q-26 0 -26 -25z" />
    <glyph glyph-name="uniF167" unicode="&#xf167;" horiz-adv-x="423" 
d="M29 333v-40h12v55h-10l-17 -17l6 -7zM21 210q9 0 9 -7q0 -6 -29 -29v-9h41v10h-22q22 16 22 28q0 18 -21 18q-13 0 -21 -9l7 -8q6 6 14 6zM30 65q12 1 12 13q0 15 -20 15q-14 0 -21 -9l6 -7q5 5 14 5q10 0 10 -6t-10 -6h-7v-10h7q11 0 11 -7t-11 -7q-8 0 -15 7l-6 -8
q8 -9 22 -9q21 0 21 16q0 12 -13 13zM406 346h-320q-17 0 -17 -17v-16q0 -18 17 -18h320q17 0 17 18v16q0 17 -17 17zM406 219h-320q-17 0 -17 -18v-16q0 -17 17 -17h320q17 0 17 17v16q0 18 -17 18zM406 91h-320q-17 0 -17 -17v-16q0 -18 17 -18h320q17 0 17 18v16
q0 17 -17 17z" />
    <glyph glyph-name="uniF168" unicode="&#xf168;" horiz-adv-x="332" 
d="M321 103h-182q-11 0 -11 -12v-1v-53q0 -11 11 -11h182q11 0 11 11v53v1q0 12 -11 12zM65 103h-53q-4 0 -8 -3q-4 -4 -4 -9v-54q0 -11 12 -11h53q12 0 12 11v54q0 5 -3 9q-4 3 -9 3zM321 231h-182q-11 0 -11 -12v-1v-53q0 -11 11 -11h182q11 0 11 11v53v1q0 12 -11 12z
M65 231h-53q-4 0 -8 -3q-4 -4 -4 -9v-54q0 -11 12 -11h53q12 0 12 11v54q0 5 -3 9q-4 3 -9 3zM128 346v-53q0 -12 11 -12h182q11 0 11 12v53v1q0 11 -11 11h-182q-11 0 -11 -11v-1zM65 358h-53q-12 0 -12 -11v-54q0 -5 4 -8q4 -4 8 -4h53q5 0 9 4q3 3 3 8v54q0 11 -12 11z
" />
    <glyph glyph-name="uniF169" unicode="&#xf169;" horiz-adv-x="332" 
d="M0 346v-53q0 -5 4 -8q4 -4 8 -4h309q11 0 11 12v54q0 11 -11 11h-309q-12 0 -12 -11v-1zM321 230h-309q-12 0 -12 -11v-1v-53q0 -11 12 -11h309q11 0 11 11v54q0 11 -11 11zM321 103h-309q-4 0 -8 -3q-4 -4 -4 -9v-1v-53q0 -11 12 -11h309q11 0 11 11v54q0 12 -11 12z
" />
    <glyph glyph-name="uniF16A" unicode="&#xf16a;" horiz-adv-x="356" 
d="M342 222h-19h-26v43q0 50 -36 86t-86 36t-85 -36q-36 -36 -36 -86v-43h-22h-19q-5 0 -9 -4t-4 -10v-197q0 -5 4 -9q5 -5 9 -5h329q5 0 10 5q4 4 4 9v197q0 6 -4 10t-10 4zM126 222v43q0 20 14 36q14 14 35 14q19 0 35 -14q15 -15 15 -35v-1v-43h-99z" />
    <glyph glyph-name="uniF16B" unicode="&#xf16b;" horiz-adv-x="346" 
d="M346 190v137q0 6 -4 7q-6 2 -8 0l-31 -22l-2 -2q-53 53 -128 53q-51 0 -92 -25q-43 -26 -66 -68q-6 -12 5 -17l42 -24q10 -7 18 5q30 55 93 55q35 0 66 -23l-5 -4l-30 -21q-3 -3 -3 -8q0 -4 5 -6l130 -44q1 -1 7 1q3 2 3 6zM326 131l-41 24q-10 7 -18 -5q-13 -25 -39 -40
t-55 -15q-35 0 -66 23l5 4l31 21q3 3 3 8t-6 6l-130 44q-1 1 -7 -1q-3 -2 -3 -6v-137q0 -5 5 -7q6 -2 8 0l30 22l3 2q53 -53 127 -53q50 0 93 25q43 26 66 68q6 11 -6 17z" />
    <glyph glyph-name="uniF16C" unicode="&#xf16c;" horiz-adv-x="397" 
d="M233 67q68 0 116 48t48 116t-48 116t-116 48t-116 -48t-48 -116q0 -45 24 -85l-80 -79h1q-14 -14 -14 -33t13 -32t32 -13t33 14v-1l82 82q36 -17 73 -17zM162 162q-30 28 -30 72q0 43 30 73q29 29 72 29q42 0 73 -29q30 -30 30 -73q0 -44 -30 -72q-30 -30 -73 -30
q-44 0 -72 30z" />
    <glyph glyph-name="uniF16D" unicode="&#xf16d;" horiz-adv-x="394" 
d="M381 345h-368q-13 0 -13 -13v-27q0 -1 2 -3l194 -110q0 -1 1 -1t1 1h1l188 110q2 0 3 1l2 2q2 2 2 3v24q0 13 -13 13zM393 265q-2 2 -4 0l-106 -62q-1 0 -1 -2v-3l107 -115q1 -1 2 -1l1 1q2 0 2 3v177q0 1 -1 2zM380 45l-127 137q-3 3 -5 1l-42 -25q-10 -5 -16 -1l-38 22
q-2 1 -4 -1l-142 -131q-1 -1 -1 -3q0 -1 2 -3q1 0 3 -1t3 -1h364q1 0 3 2t0 4zM5 91l112 103q1 1 1 3l-2 2l-111 64q-1 1 -3 0q-2 -2 -2 -3v-167q0 -1 2 -3h1q1 0 2 1z" />
    <glyph glyph-name="uniF16E" unicode="&#xf16e;" horiz-adv-x="466" 
d="M91 389q-42 0 -42 -42t42 -42q43 0 43 42t-43 42zM172 293h-152q-9 0 -14 -5q-6 -6 -6 -14v-120q0 -8 5 -13t13 -5t13 5t5 13v82v1q0 6 6 6q5 0 5 -6v-1v-53v-165q0 -9 6 -15t15 -6t15 6t6 15v110q0 6 6 6t6 -6v-110q0 -9 6 -15t15 -6q8 0 14 6t6 15v110v55v53v1q0 6 6 6
t6 -6v-1v-82q0 -8 5 -13t13 -5q7 0 12 5q6 6 6 13v120q0 6 -6 13q-3 5 -12 6zM305 347q0 -43 42 -43q43 0 43 43q0 42 -43 42q-42 0 -42 -42zM466 171l-28 106l-1 2q-5 14 -19 14h-134q-14 0 -19 -14v-2l-29 -106v-3q0 -8 5 -13t13 -5q12 0 17 11l21 78q1 4 6 4q4 0 5 -4v-1
v-1v-1l-33 -124q-1 -1 -1 -4q0 -10 10 -10h24v-82q0 -9 6 -15t15 -6q7 0 11 2q2 1 7 8q3 4 3 11v82h12v-82q0 -9 6 -15t15 -6t15 6t6 15v82h25q10 0 10 10h-1h1h-1q0 3 -1 4l-33 124v2q0 5 6 5q4 0 5 -4l21 -78q5 -11 17 -11q5 0 9 2q4 3 7 7q2 4 2 9v3z" />
    <glyph glyph-name="uniF16F" unicode="&#xf16f;" horiz-adv-x="342" 
d="M342 248v106q0 8 -8 8h-106q-8 0 -8 -8v-35q0 -8 8 -8h26l-44 -45q-34 24 -76 24q-56 0 -95 -39t-39 -95t39 -95t95 -39t95 39t39 95q0 39 -23 74l46 46v-28q0 -8 8 -8h35q8 0 8 8zM76 98q-25 24 -25 58t25 59q24 24 58 24t59 -24q24 -25 24 -59t-24 -58q-25 -25 -59 -25
t-58 25z" />
    <glyph glyph-name="uniF170" unicode="&#xf170;" horiz-adv-x="190" 
d="M91 388q-42 0 -42 -42t42 -42q43 0 43 42t-43 42zM172 292h-152q-6 0 -10 -2q-2 -1 -7 -8q-3 -4 -3 -10v-120q0 -7 5 -12t13 -5t13 5t5 12v83v1q0 6 6 6q5 0 5 -6v-1v-53v-165q0 -9 6 -15t15 -6t15 6t6 15v110q0 6 6 6t6 -6v-110q0 -9 6 -15t15 -6q8 0 14 6t6 15v110v55
v53v1q0 6 6 6t6 -6v-1v-83q0 -7 5 -12t13 -5q7 0 12 5q6 6 6 12v120q0 6 -6 14q-3 4 -12 6z" />
    <glyph glyph-name="uniF171" unicode="&#xf171;" horiz-adv-x="430" 
d="M430 -23v430q0 14 -14 14v0h-255v0l-161 -161v-283q0 -14 14 -14h402q11 0 13 11h1v2v1zM305 370h74v-125l-93 92zM51 246h110q14 0 14 14v110h101l-139 -240l-86 85v31zM51 14v165l72 -72l-53 -93h-19zM99 14l174 300l106 -106v-194h-280zM276 215q-25 0 -43 -18
t-18 -44q0 -19 12 -36l40 -69v-1v-1q3 -4 10 -4q4 0 8 4q2 2 2 3l39 67q12 15 12 37q0 25 -18 44q-18 18 -44 18zM255 131q-9 7 -9 21q0 13 9 22q7 9 21 9q13 0 22 -9q8 -10 8 -22q0 -13 -8 -21q-9 -9 -22 -9q-14 0 -21 9z" />
    <glyph glyph-name="uniF172" unicode="&#xf172;" horiz-adv-x="289" 
d="M289 250q0 60 -42 103q-43 42 -103 42t-102 -42q-42 -43 -42 -103q0 -46 29 -86l92 -161q1 -1 1 -2t1 -1q8 -11 21 -11t20 10v-1l1 2q1 0 1 1t1 2l1 1q0 2 1 2l90 157q30 41 30 87zM93 198q-21 21 -21 50t21 50t50 21t50 -21t21 -50t-21 -50t-50 -21t-50 21z" />
    <glyph glyph-name="uniF173" unicode="&#xf173;" horiz-adv-x="385" 
d="M76 302q-32 0 -54 -22t-22 -54q0 -31 23 -54t53 -23q12 0 14 12v127q0 14 -14 14zM385 364q0 14 -14 14q-5 0 -8 -3l-123 -70h-110q-14 0 -14 -14v-132q1 -13 14 -13h98l134 -77q4 -4 9 -4q14 0 14 14v2v23v236v24zM224 41v1l-43 73q-5 6 -9 6h-37l-6 -2q-12 -8 -5 -19
q0 -1 1 -1v-1l49 -85l1 -1q8 -12 18 -5l2 2l26 14v1q7 7 3 17z" />
    <glyph glyph-name="uniF174" unicode="&#xf174;" horiz-adv-x="261" 
d="M261 196v1v73q0 8 -6 14q-7 5 -14 5q-19 0 -19 -19v-73q0 -38 -27 -65t-65 -27t-64 27q-27 27 -27 65v73q0 8 -6 14q-7 5 -14 5q-19 0 -19 -19v-74q0 -48 32 -85q31 -35 79 -43v-28h-68q-7 0 -14 -5q-6 -6 -6 -14t6 -14t14 -6h175q8 0 14 6q5 7 5 14q0 19 -19 19h-68v28
q48 8 79 43q32 37 32 85zM65 199v-2q0 -27 19 -46t46 -19q28 0 47 19t19 46v2v119q-2 28 -20 46q-19 19 -46 19t-45 -19q-18 -18 -20 -46v-119z" />
    <glyph glyph-name="uniF175" unicode="&#xf175;" horiz-adv-x="384" 
d="M281 219h-178q-5 0 -5 -5v-44q0 -5 5 -5h178q5 0 5 5v44q0 5 -5 5zM292 292q41 -43 41 -100q0 -58 -41 -99q-42 -42 -100 -42t-99 42q-42 41 -42 99t42 100q41 41 99 41q57 0 100 -41zM56 328q-56 -56 -56 -136t56 -136t136 -56t136 56t56 136t-56 136t-136 56t-136 -56z
" />
    <glyph glyph-name="uniF176" unicode="&#xf176;" horiz-adv-x="414" 
d="M404 251h-394q-10 0 -10 -11v-96q0 -11 10 -11h394q10 0 10 11v96q0 11 -10 11z" />
    <glyph glyph-name="uniF177" unicode="&#xf177;" horiz-adv-x="224" 
d="M211 295h-199q-12 0 -12 -13v-307q0 -13 12 -13h199q13 0 13 13v307q0 13 -13 13zM112 -24q-12 0 -12 12q0 13 12 13q13 0 13 -13q0 -12 -13 -12zM173 13h-122v231h122v-231zM212 367v1q3 4 0 9l-5 5v1q-39 39 -95 39q-57 -2 -95 -40l-5 -5h-1v-1q-5 -4 1 -10l10 -9
q4 -3 9 0l6 5q30 30 75 32q44 0 75 -31l5 -5v-1q4 -5 10 1h1zM174 339l-5 6q-25 23 -57 23q-34 0 -57 -23v-1l-6 -5q-5 -5 1 -10v-1l10 -9q4 -3 9 0l6 5v1q15 15 37 15q20 0 37 -15l5 -5v-1q6 -4 11 1v0l9 10q3 4 0 9z" />
    <glyph glyph-name="uniF178" unicode="&#xf178;" horiz-adv-x="224" 
d="M211 358h-199q-12 0 -12 -12v-308q0 -12 12 -12h199q13 0 13 12v308q0 12 -13 12zM112 39q-12 0 -12 12q0 13 12 13q13 0 13 -13q0 -12 -13 -12zM173 77h-122v230h122v-230z" />
    <glyph glyph-name="uniF179" unicode="&#xf179;" horiz-adv-x="471" 
d="M442 381h-413q-12 0 -20 -8q-9 -7 -9 -20v-252q0 -13 9 -20q7 -9 20 -9h155v-44h-48q-8 0 -8 -8v-9q0 -8 8 -8h194q9 0 9 8v9q0 8 -9 8h-44v44h156q12 0 21 9q8 8 8 20v252q0 12 -8 20q-10 8 -21 8zM51 123v208h368v-208h-368z" />
    <glyph glyph-name="uniF17A" unicode="&#xf17a;" horiz-adv-x="467" 
d="M465 48h1l-171 295q-7 13 -20 13t-21 -14l-114 -196l-27 48q-3 7 -11 7t-11 -7l-81 -140h-1v-1l-8 -13q-1 -1 -1 -5q0 -7 7 -7q1 0 1 1h1v-1h87h103h256q12 2 12 14z" />
    <glyph glyph-name="uniF17B" unicode="&#xf17b;" horiz-adv-x="382" 
d="M366 378h-262q-8 0 -12 -4q-5 -5 -5 -12v-246q-16 2 -18 2q-30 0 -49 -16q-20 -17 -20 -40q0 -22 20 -39t49 -17t49 17t20 39v236h193v-135q-16 2 -18 2q-30 0 -49 -16q-20 -17 -20 -40q0 -22 20 -39t49 -17t49 17t20 39v253q0 16 -16 16z" />
    <glyph glyph-name="uniF17C" unicode="&#xf17c;" horiz-adv-x="397" 
d="M397 52v280v2q-2 11 -13 11h-24l-1 1q-13 0 -13 -13v-2v-119l-170 99q-2 2 -7 2q-8 0 -8 -8v-78l-146 84q-2 2 -6 2q-9 0 -9 -8v-226q0 -8 9 -8q4 0 6 2l146 84v-78q0 -8 8 -8q5 0 7 2l170 99v-120v-1q0 -13 13 -13h25v1q13 0 13 13z" />
    <glyph glyph-name="uniF17D" unicode="&#xf17d;" horiz-adv-x="384" 
d="M56 328q-56 -56 -56 -136t56 -136t136 -56t136 56t56 136t-56 136t-136 56t-136 -56zM192 51q-58 0 -99 42q-42 41 -42 99q0 50 33 90l65 -65h-25v-1l-31 18q-1 1 -4 1q-7 0 -7 -7q0 -4 3 -6l32 -18q-2 -14 -2 -19q0 -24 7 -31l-17 -31l-3 -6q0 -10 10 -10q4 0 8 4l21 36
l21 -36q4 -4 8 -4q10 0 10 10l-3 6l-13 23h23h21l-13 -23l-2 -6q0 -10 10 -10q3 0 7 4h1l16 28l21 -21l4 -7q3 -3 6 -3l24 -24q-40 -33 -90 -33zM300 102l-47 47l-3 4q9 5 9 32v6q-1 2 -1 4l8 8h22h6l6 6q2 2 2 5q0 4 -3 6l-11 11v11q0 7 -6 10l-14 8h-1l-10 17l-17 -30h1
l-30 -30h-26l-83 83q40 33 90 33q57 0 100 -41q41 -43 41 -100q0 -50 -33 -90z" />
    <glyph glyph-name="uniF17E" unicode="&#xf17e;" horiz-adv-x="384" 
d="M272 213h-4q-6 0 -6 -6v-30v-1q0 -5 6 -5h4q5 0 5 5v31q0 6 -5 6zM293 213h-3q-6 0 -6 -6v-31q0 -5 6 -5h3q6 0 6 5v1v30q0 6 -6 6zM56 328q-56 -56 -56 -136t56 -136t136 -56t136 56t56 136t-56 136t-136 56t-136 -56zM192 51q-58 0 -99 42q-42 41 -42 99q0 50 33 90
l69 -69h-62q-6 0 -6 -6v-30q0 -6 6 -6h104l87 -87q-40 -33 -90 -33zM300 102l-69 69h18q6 0 6 6v30q0 6 -6 6h-60l-87 87q40 33 90 33q57 0 100 -41q41 -43 41 -100q0 -50 -33 -90z" />
    <glyph glyph-name="uniF17F" unicode="&#xf17f;" horiz-adv-x="360" 
d="M301 46h-33q-9 0 -9 -9v-15h-208v241h91q9 0 9 9v90h108v-105q0 -9 9 -9h33q9 0 9 9v0v127v21q0 8 -9 8h-12h-147h-9l-133 -132v-13v-5v-271v-13q0 -8 9 -8h8h276h8q9 0 9 8v13v45q0 9 -9 9zM351 174h-40v40q0 8 -9 8h-35q-9 0 -9 -8v-40h-40q-9 0 -9 -9v-36q0 -8 9 -8
h40v-40q0 -9 9 -9h35q9 0 9 9v40h40q9 0 9 8v36q0 9 -9 9z" />
    <glyph glyph-name="uniF180" unicode="&#xf180;" horiz-adv-x="361" 
d="M310 410v20q0 9 -9 9h-12h-147h-9l-133 -133v-12v-5v-271v-13q0 -9 9 -9h8h276h8q9 0 9 9v13v392zM51 47v242h91q9 0 9 8v91h108v-341h-208zM354 321h-18v-343q0 -8 -8 -8h-253v-17q0 -8 7 -8h272q7 0 7 8v360q0 8 -7 8z" />
    <glyph glyph-name="uniF181" unicode="&#xf181;" horiz-adv-x="310" 
d="M106 119q8 0 9 -6l12 5q-6 14 -21 14q-26 0 -26 -24q0 -10 8 -18q7 -7 18 -7q13 0 21 14l-12 6q-1 -7 -9 -7q-12 0 -12 12q0 11 12 11zM161 114l-13 4q0 2 3 2q6 0 14 -5l8 10q-8 7 -20 7q-20 0 -20 -16q0 -11 14 -14q13 -3 13 -4q0 -3 -6 -3q-8 0 -15 6l-7 -10
q8 -8 22 -8q20 0 20 17q0 11 -13 14zM204 99l-11 32h-16l18 -47h18l17 47h-16zM310 384v21q0 8 -9 8h-12h-147h-9l-133 -132v-13v-5v-271v-13q0 -8 9 -8h8h276h8q9 0 9 8v13v392zM51 22v241h91q9 0 9 9v90h108v-340h-208z" />
    <glyph glyph-name="uniF182" unicode="&#xf182;" horiz-adv-x="361" 
d="M301 46h-33q-9 0 -9 -9v-15h-208v241h91q9 0 9 9v90h108v-105q0 -9 9 -9h33q9 0 9 9v0v127v21q0 8 -9 8h-12h-147h-9l-133 -132v-13v-5v-271v-13q0 -8 9 -8h8h276h8q9 0 9 8v13v45q0 9 -9 9zM330 147l28 28q6 7 0 13l-25 25q-2 2 -6 2q-5 0 -7 -2l-28 -28l-28 28
q-6 6 -12 0l-25 -25q-2 -2 -2 -6q0 -5 2 -7l28 -28l-28 -28q-2 -2 -2 -6q0 -5 2 -7l25 -25q6 -6 12 0l28 29l29 -29q6 -6 12 0l25 25q6 6 0 13z" />
    <glyph glyph-name="uniF183" unicode="&#xf183;" horiz-adv-x="310" 
d="M310 384v21q0 8 -9 8h-12h-147h-9l-133 -132v-13v-5v-271v-13q0 -8 9 -8h8h276h8q9 0 9 8v13v392zM51 22v241h91q9 0 9 9v90h108v-340h-208zM97 131h-21v-47h21q26 0 26 24q0 23 -26 23zM97 96h-7v23h7q11 0 11 -11q0 -12 -11 -12zM181 108q0 24 -26 24t-26 -24
q0 -10 8 -18q7 -7 18 -7q12 0 19 7t7 18zM155 96q-12 0 -12 12q0 11 12 11q11 0 11 -11q0 -12 -11 -12zM213 119q7 0 9 -6l12 5q-6 14 -21 14q-26 0 -26 -24q0 -10 8 -18q7 -7 18 -7q13 0 21 14l-12 6q-1 -7 -9 -7q-12 0 -12 12q0 11 12 11z" />
    <glyph glyph-name="uniF184" unicode="&#xf184;" horiz-adv-x="428" 
d="M301 46h-33q-9 0 -9 -9v-15h-208v241h91q9 0 9 9v90h108v-63q0 -8 9 -8h33q9 0 9 8v1v84v21q0 8 -9 8h-12h-147h-9l-133 -132v-13v-5v-271v-13q0 -8 9 -8h8h276h8q9 0 9 8v13v45q0 9 -9 9zM425 248l-59 60q-6 6 -13 0l-163 -163l1 -1l-1 1l-22 -84q-2 -5 2 -9q6 -6 10 -1
l82 22l163 163q6 6 0 12zM195 78l13 49l36 -36z" />
    <glyph glyph-name="uniF185" unicode="&#xf185;" horiz-adv-x="458" 
d="M456 112l-95 68q-3 2 -6 0q-4 -1 -4 -6v-32h-85q-7 0 -7 -6v-58q0 -7 7 -7h86v-32q0 -5 3 -6q2 -1 7 1l94 68q2 2 2 5t-2 5zM301 46h-33q-9 0 -9 -9v-15h-208v241h91q9 0 9 9v90h108v-186q0 -8 9 -8h33q9 0 9 8v1v207v21q0 8 -9 8h-12h-147h-9l-133 -132v-13v-5v-271v-13
q0 -8 9 -8h8h276h8q9 0 9 8v13v45q0 9 -9 9zM107 119q7 0 9 -6l13 5q-6 14 -22 14q-26 0 -26 -24q0 -10 8 -18q7 -7 18 -7q14 0 22 14l-13 6q-1 -7 -9 -7q-11 0 -11 12q0 11 11 11zM156 95q-8 0 -15 6l-8 -10q8 -8 22 -8q20 0 20 17q0 11 -13 14l-13 4q0 2 4 2q6 0 14 -5
l7 10q-8 7 -20 7q-19 0 -19 -16q0 -11 13 -14t13 -4q0 -3 -5 -3zM195 131h-16l17 -47h18l17 47h-16l-10 -32z" />
    <glyph glyph-name="uniF186" unicode="&#xf186;" horiz-adv-x="458" 
d="M456 112l-95 68q-3 2 -6 0q-4 -1 -4 -6v-32h-85q-7 0 -7 -6v-58q0 -7 7 -7h86v-32q0 -5 3 -6q2 -1 7 1l94 68q2 2 2 5t-2 5zM301 46h-33q-9 0 -9 -9v-15h-208v241h91q9 0 9 9v90h108v-186q0 -8 9 -8h33q9 0 9 8v1v207v21q0 8 -9 8h-12h-147h-9l-133 -132v-13v-5v-271v-13
q0 -8 9 -8h8h276h8q9 0 9 8v13v45q0 9 -9 9zM77 131v-47h22q26 0 26 24q0 23 -26 23h-22zM110 108q0 -12 -11 -12h-7v23h7q11 0 11 -11zM131 108q0 -25 25 -25q12 0 19 7t7 18q0 24 -26 24q-25 0 -25 -24zM168 108q0 -12 -12 -12q-11 0 -11 12q0 11 11 11q12 0 12 -11z
M214 119q8 0 9 -6l13 5q-6 14 -22 14q-26 0 -26 -24q0 -10 8 -18q7 -7 18 -7q14 0 22 14l-13 6q-1 -7 -9 -7q-11 0 -11 12q0 11 11 11z" />
    <glyph glyph-name="uniF187" unicode="&#xf187;" horiz-adv-x="458" 
d="M456 112l-95 68q-3 2 -6 0q-4 -1 -4 -6v-32h-85q-7 0 -7 -6v-58q0 -7 7 -7h86v-32q0 -5 3 -6q2 -1 7 1l94 68q2 2 2 5t-2 5zM301 46h-33q-9 0 -9 -9v-15h-208v241h91q9 0 9 9v90h108v-186q0 -8 9 -8h33q9 0 9 8v1v207v21q0 8 -9 8h-12h-147h-9l-133 -132v-13v-5v-271v-13
q0 -8 9 -8h8h276h8q9 0 9 8v13v45q0 9 -9 9zM83 131v-47h15v15h11q17 0 17 16t-17 16h-26zM98 119h9q4 0 4 -4t-4 -4h-9v8zM133 131v-47h21q26 0 26 24q0 23 -26 23h-21zM166 108q0 -12 -12 -12h-7v23h7q12 0 12 -11zM225 119v12h-36v-47h14v18h21v12h-21v5h22z" />
    <glyph glyph-name="uniF188" unicode="&#xf188;" horiz-adv-x="458" 
d="M456 112l-95 68q-3 2 -6 0q-4 -1 -4 -6v-32h-85q-7 0 -7 -6v-58q0 -7 7 -7h86v-32q0 -5 3 -6q2 -1 7 1l94 68q2 2 2 5t-2 5zM301 46h-33q-9 0 -9 -9v-15h-208v241h91q9 0 9 9v90h108v-186q0 -8 9 -8h33q9 0 9 8v1v207v21q0 8 -9 8h-12h-147h-9l-133 -132v-13v-5v-271v-13
q0 -8 9 -8h8h276h8q9 0 9 8v13v45q0 9 -9 9z" />
    <glyph glyph-name="uniF189" unicode="&#xf189;" horiz-adv-x="310" 
d="M9 263h133q9 0 9 9v133q0 8 -9 8h-9l-133 -132v-9q0 -9 9 -9zM301 413h-91q-6 0 -8 -6v-187q0 -9 -9 -9h-184q-7 0 -9 -8v-224q0 -8 9 -8h292q9 0 9 8v426q0 8 -9 8z" />
    <glyph glyph-name="uniF18A" unicode="&#xf18a;" horiz-adv-x="389" 
d="M381 329h-18v-343q0 -7 -8 -7h-253v-18q0 -8 8 -8h271q8 0 8 8v360q0 8 -8 8zM338 12v360q0 8 -8 8h-18v-343q0 -7 -8 -7h-253v-18q0 -8 8 -8h271q8 0 8 8zM287 63v360q0 8 -8 8h-271q-8 0 -8 -8v-360q0 -8 8 -8h271q8 0 8 8z" />
    <glyph glyph-name="uniF18B" unicode="&#xf18b;" horiz-adv-x="310" 
d="M110 131h-26v-47h15v15h11q17 0 17 16t-17 16zM108 111h-9v8h9q4 0 4 -4t-4 -4zM155 131h-21v-47h21q26 0 26 24q0 23 -26 23zM155 96h-7v23h7q12 0 12 -11q0 -12 -12 -12zM190 84h14v18h21v12h-21v5h22v12h-36v-47zM310 384v21q0 8 -9 8h-12h-147h-9l-133 -132v-13v-5
v-271v-13q0 -8 9 -8h8h276h8q9 0 9 8v13v392zM51 22v241h91q9 0 9 9v90h108v-340h-208z" />
    <glyph glyph-name="uniF18C" unicode="&#xf18c;" horiz-adv-x="360" 
d="M310 86q0 9 -9 9h-33q-9 0 -9 -9v-64h-208v241h91q9 0 9 9v90h108v-154q0 -9 9 -9h33q9 0 9 9v0v176v21q0 8 -9 8h-12h-147h-9l-133 -132v-13v-5v-271v-13q0 -8 9 -8h8h276h8q9 0 9 8v13v94zM351 174h-133q-9 0 -9 -9v-36q0 -8 9 -8h133q9 0 9 8v36q0 9 -9 9z" />
    <glyph glyph-name="uniF18D" unicode="&#xf18d;" horiz-adv-x="403" 
d="M403 384h-1v21q0 8 -8 8h-13h-147h-9l-133 -132v-13v-5v-9h1q0 -8 8 -8h34q8 0 8 8v9h91q9 0 9 9v90h109v-340h-209v15q0 9 -8 9h-34q-9 0 -9 -9v-45v-13q0 -8 9 -8h8h277h8q8 0 8 8v13zM117 64q34 0 58 24t24 58t-24 58t-58 24t-58 -24t-24 -58q0 -21 12 -42l-40 -40
q-7 -7 -7 -17t7 -16q6 -6 16 -6q9 0 16 7l41 41q16 -9 37 -9zM165 146q0 -20 -14 -34q-16 -14 -34 -14q-19 0 -33 14t-14 34t14 34q13 13 33 13t34 -14t14 -33z" />
    <glyph glyph-name="uniF18E" unicode="&#xf18e;" horiz-adv-x="310" 
d="M310 384v21q0 8 -9 8h-12h-147h-9l-133 -132v-13v-5v-271v-13q0 -8 9 -8h8h276h8q9 0 9 8v13v392zM51 22v241h91q9 0 9 9v90h108v-340h-208z" />
    <glyph glyph-name="uniF18F" unicode="&#xf18f;" horiz-adv-x="439" 
d="M389 203l-164 164q-9 9 -19 0l-27 -27l-57 58q-8 8 -18 8t-18 -8t-8 -18t8 -18l57 -58l-139 -139q-10 -9 0 -19l164 -164q9 -9 18 0l203 203q9 9 0 18zM288 156h-221l149 148l110 -110zM430 70l-31 53v1q-4 4 -7 4q-4 0 -7 -3v-1h-1v-1l-30 -52q-10 -13 -10 -28
q0 -19 14 -33q14 -15 34 -15q19 0 33 14t14 34q0 15 -9 27z" />
    <glyph glyph-name="uniF190" unicode="&#xf190;" horiz-adv-x="356" 
d="M77 -5q2 0 4 1h5q25 3 51 29l178 178q29 29 38 59q13 51 -30 94q-34 34 -74 32q-39 -1 -78 -40l-165 -165q-5 -5 -5 -13q0 -9 5 -14t14 -5q8 0 13 5l165 165q53 53 98 8q28 -28 20 -57q-6 -20 -28 -42l-178 -178q-16 -16 -30 -18q-15 0 -26 11q-15 15 -14 30q2 14 16 28
l150 151q21 21 29 13q7 -7 -14 -28l-138 -139l27 -27l138 139q48 48 14 82q-35 35 -83 -13l-150 -151q-24 -24 -27 -50q-4 -33 25 -62q23 -23 50 -23z" />
    <glyph glyph-name="uniF191" unicode="&#xf191;" horiz-adv-x="228" 
d="M65 346h-1h-53q-11 0 -11 -11v-286q0 -11 11 -11h54q12 0 12 11v286q0 11 -12 11zM228 49v286q0 11 -11 11h-2h-53q-11 0 -11 -11v-286q0 -11 11 -11h55q11 0 11 11z" />
    <glyph glyph-name="uniF192" unicode="&#xf192;" horiz-adv-x="363" 
d="M89 277q-16 14 -37 14t-37 -14q-15 -15 -15 -37t15 -37t37 -15t37 15t15 37t-15 37zM274 266q-15 -15 -15 -37q0 -23 15 -36q15 -15 37 -15t37 15q15 13 15 36q0 22 -15 37t-37 15t-37 -15zM264 172l-15 15q-25 33 -68 33q-37 0 -62 -27q-20 -18 -22 -21l-3 -4
q-35 -43 -35 -84q0 -28 20 -48t48 -20q33 0 54 27q21 -27 53 -27q28 0 48 20t20 48q0 41 -35 84zM128 310q0 -57 57 -57t57 57q0 58 -57 58t-57 -58z" />
    <glyph glyph-name="uniF193" unicode="&#xf193;" horiz-adv-x="315" 
d="M73 88l14 60q5 15 19 15h12q73 0 116 31q41 29 41 80q0 19 -8 37q-7 14 -22 24q-12 8 -35 13q-25 4 -48 4h-85q-15 0 -19 -16l-58 -248q-2 -7 2 -11q5 -5 11 -5h40q16 0 20 16zM106 232l12 53q4 15 20 15h13q21 0 35 -8q12 -8 12 -24q0 -25 -18 -38q-20 -14 -52 -14h-10
q-16 0 -12 16zM307 271q-7 14 -22 24q-1 0 -1 1h-1v-1q8 -18 8 -37q0 -51 -41 -80q-43 -31 -116 -31h-12q-14 0 -19 -15l-14 -61q-3 -15 -19 -15h-28l-2 -8q-2 -7 2 -11q5 -5 11 -5h40q16 0 20 16l14 60q4 16 19 16h12q73 0 115 30t42 81q0 18 -8 36z" />
    <glyph glyph-name="uniF194" unicode="&#xf194;" horiz-adv-x="405" 
d="M401 298l-92 93q-10 10 -20 0l-253 -254h-1l-34 -130q-3 -8 3 -14t16 -2l128 34l253 254q9 9 0 19zM43 33l20 76l57 -56z" />
    <glyph glyph-name="uniF195" unicode="&#xf195;" horiz-adv-x="443" 
d="M443 356h-1q0 10 -6 17q-6 6 -16 6q-1 0 -2 -1h-2v1h-393q-10 0 -16 -6q-7 -7 -7 -17v-328v-2q2 -9 8 -14q6 -7 15 -7h393v1q2 -1 4 -1q9 0 15 6q5 5 7 15h1v330zM392 56h-56v1l-1 1l-116 202q-5 9 -14 9q-11 0 -15 -10l-77 -134l-19 33q-2 5 -7 5q-6 0 -8 -5l-28 -48
v218h341v-272zM262 250q0 -51 52 -51t52 51q0 52 -52 52t-52 -52z" />
    <glyph glyph-name="uniF196" unicode="&#xf196;" horiz-adv-x="384" 
d="M56 328q-56 -56 -56 -136t56 -136t136 -56t136 56t56 136t-56 136t-136 56t-136 -56zM93 93q-42 41 -42 99t42 100q41 41 99 41q57 0 100 -41q41 -43 41 -100q0 -58 -41 -99q-42 -42 -100 -42t-99 42zM276 197l-120 69q-1 1 -3 1q-5 0 -5 -6v-1v-138q0 -4 5 -4h3l120 69
q2 2 2 5t-2 5z" />
    <glyph glyph-name="uniF197" unicode="&#xf197;" horiz-adv-x="415" 
d="M25 35h364q11 0 19 8q7 7 7 18v262q0 12 -7 19t-19 7h-364q-10 0 -17 -7q-8 -8 -8 -19v-262q0 -10 8 -18t17 -8zM364 86h-313v212h313v-212zM283 191l-61 35l-61 35v-70v-71l61 35z" />
    <glyph glyph-name="uniF198" unicode="&#xf198;" horiz-adv-x="276" 
d="M17 36l254 146q5 3 5 10t-6 10l-252 146q-6 2 -7 2q-11 0 -11 -12v-1v-293q1 -10 11 -10q1 0 3 1t3 1z" />
    <glyph glyph-name="uniF199" unicode="&#xf199;" horiz-adv-x="371" 
d="M362 245h-124v123q0 10 -9 10h-87q-9 0 -9 -10v-123h-124q-9 0 -9 -10v-86q0 -4 3 -7t6 -3h124v-123q0 -4 3 -7t6 -3h87q3 0 6 3t3 7v123h124q3 0 6 3t3 7v86q0 10 -9 10z" />
    <glyph glyph-name="uniF19A" unicode="&#xf19a;" horiz-adv-x="221" 
d="M221 75q0 1 -1 2v1l-15 37q-1 4 -5 4q-3 0 -5 -2q-11 -15 -35 -15q-11 0 -26 7t-28 7q-9 0 -20 -4q27 16 27 46v4q-1 2 -1 4h47q5 0 5 6v22q0 5 -5 5h-60q-20 34 -20 49q0 18 13 28q11 10 30 10q30 0 42 -29q2 -3 6 -3h2l37 22q3 2 3 5q0 2 -1 3q-26 50 -96 50
q-39 0 -69 -24q-31 -24 -31 -61q0 -24 19 -50h-28q-6 0 -6 -6v-22q0 -5 6 -5h50q5 -13 5 -22q0 -30 -45 -51v-1q-3 -2 -3 -5v-2l14 -30h1q2 -3 5 -3h2q28 16 48 16q11 0 34 -9t41 -9q41 0 61 20q2 2 2 5z" />
    <glyph glyph-name="uniF19B" unicode="&#xf19b;" horiz-adv-x="384" 
d="M328 332q-3 3 -8 3q-4 0 -7 -3h-1l-21 -19v-1q-3 -3 -3 -7q0 -7 5 -10q40 -40 40 -98q0 -59 -41 -100q-43 -41 -100 -41q-58 0 -99 41q-42 41 -42 100q0 55 41 99q4 4 4 9q0 3 -4 7v1l-21 19h-1q-3 3 -7 3q-6 0 -10 -6q-53 -56 -53 -132q0 -79 56 -135q56 -57 136 -57
t136 57q56 56 56 135t-56 135zM178 127h28q11 0 11 11v230q0 11 -11 11h-28q-11 0 -11 -11v-230q0 -11 11 -11z" />
    <glyph glyph-name="uniF19C" unicode="&#xf19c;" horiz-adv-x="397" 
d="M388 313q-4 0 -6 -2l-146 -84v78q0 8 -8 8q-5 0 -7 -2l-170 -99v120v1q0 13 -13 13h-25v-1q-13 0 -13 -13v-280v-2q2 -11 13 -11h1h23l1 -1q13 0 13 13v2v119l171 -99q2 -2 6 -2q8 0 8 8v78l146 -84q2 -2 6 -2q9 0 9 8v226q0 8 -9 8z" />
    <glyph glyph-name="uniF19D" unicode="&#xf19d;" horiz-adv-x="325" 
d="M324 109l-1 1l-137 239h-1q-1 3 -4 4l-57 32q-4 3 -9 1l-1 -1l-109 -63q-5 -3 -5 -9v-65q0 -5 1 -6h1l137 -238v-1q6 -10 15 -4l166 96q9 4 4 14zM78 296q-8 2 -12 9q-4 6 -2 15q2 8 9 12q6 4 15 2q8 -2 12 -9q4 -6 2 -15q-2 -8 -9 -12q-6 -4 -15 -2z" />
    <glyph glyph-name="uniF19E" unicode="&#xf19e;" horiz-adv-x="395" 
d="M393 100v1l-138 238q-1 3 -4 4l-41 24l45 -79l104 -179q6 -9 -4 -15l-153 -88l7 -12v-1q4 -9 14 -4l167 96q9 5 3 15zM154 8l166 96q10 6 4 15h-1l-137 239h-1q-1 3 -4 4l-57 33v-1q-4 3 -9 1h-1v-1l-109 -62q-5 -3 -5 -9v-65q0 -6 1 -7h1l137 -238v-1q6 -10 15 -4z
M78 305q-8 1 -12 9q-4 6 -2 15q2 7 9 12q6 4 15 2q8 -1 12 -9q4 -6 2 -15q-2 -7 -9 -12q-6 -4 -15 -2z" />
    <glyph glyph-name="uniF19F" unicode="&#xf19f;" horiz-adv-x="414" 
d="M414 80v188q0 9 -9 9h-67v110q0 10 -10 10h-242q-9 0 -9 -10v-110h-68q-9 0 -9 -9v-188q0 -10 9 -10h68v79h25h210h26v-79h67q9 0 9 10zM312 235h-210v127q0 9 9 9h192q9 0 9 -9v-127zM103 123v-126q0 -10 9 -10h190q10 0 10 10v126h-209z" />
    <glyph glyph-name="uniF1A0" unicode="&#xf1a0;" horiz-adv-x="384" 
d="M56 328q-56 -56 -56 -136t56 -136t136 -56t136 56t56 136t-56 136t-136 56t-136 -56zM192 51q-58 0 -99 42q-42 41 -42 99q0 50 33 90l198 -198q-40 -33 -90 -33zM300 102l-198 198q40 33 90 33q57 0 100 -41q41 -43 41 -100q0 -50 -33 -90z" />
    <glyph glyph-name="uniF1A1" unicode="&#xf1a1;" horiz-adv-x="391" 
d="M391 331v32q0 10 -9 10h-373q-9 0 -9 -10v-32q0 -9 9 -9h373q9 0 9 9zM359 296h-328q-9 0 -9 -9v-190q0 -8 7 -14q6 -7 15 -7h139v-27q-9 -7 -9 -17q0 -9 6 -15t15 -6t15 6t6 15q0 11 -8 17v27h139q9 0 15 7q6 6 6 14v190q0 9 -9 9z" />
    <glyph glyph-name="uniF1A2" unicode="&#xf1a2;" horiz-adv-x="293" 
d="M293 198v66q0 8 -6 14t-14 6v1h-62h-1h-1h-1q-10 1 -18 9q-7 7 -7 18q0 9 6 17h-1q6 9 6 21q0 16 -12 30q-14 12 -30 12t-30 -12q-13 -13 -13 -30q0 -12 6 -21q5 -7 5 -17q0 -11 -7 -18q-7 -8 -18 -9h-75q-8 0 -14 -6q-6 -7 -6 -15v-1v-68q0 -5 4 -8q4 -4 8 -4l2 1h1
q7 4 20 4q20 0 36 -14q14 -16 14 -36q0 -21 -14 -35q-15 -15 -36 -15q-12 0 -19 4q-2 1 -4 1q-4 0 -8 -3q-4 -4 -4 -9v-2v-66v-1q0 -8 6 -14t14 -6h2h68q11 0 11 12l-1 2v1v1q-2 10 -2 14q0 21 15 36q14 14 35 14q20 0 36 -14q14 -16 14 -36q0 -4 -2 -14q-1 -1 -1 -4
q0 -4 4 -8q3 -4 8 -4h65q8 0 15 6q6 6 6 14v67q-1 10 -12 10v1q-10 -2 -13 -2q-22 0 -35 15q-15 13 -15 35q0 21 15 36q14 14 35 14q3 0 13 -2v1q9 0 11 8h1v3z" />
    <glyph glyph-name="uniF1A3" unicode="&#xf1a3;" horiz-adv-x="435" 
d="M52 224q-10 0 -11 -1q9 31 39 48q3 1 3 5q0 3 -2 5l-22 13q-2 2 -3 2q-1 -1 -3 -1q-53 -38 -53 -96q0 -24 14 -38q13 -15 32 -15q15 0 29 12q12 12 12 29t-10 27t-25 10zM157 224q-9 0 -10 -1q9 31 38 48q4 1 4 5t-3 5l-21 13q-2 2 -4 2h-1q0 -1 -1 -1h-1
q-53 -38 -53 -96q0 -24 14 -38q13 -15 32 -15q17 0 29 12t12 29t-10 27t-25 10zM284 238q-16 0 -28 -12q-13 -12 -13 -29q0 -15 11 -26t25 -11q9 0 10 1q-9 -31 -39 -48q-3 -1 -3 -5q0 -3 2 -5l22 -13q2 -2 3 -2q1 1 3 1q53 38 53 96q0 25 -13 39q-14 14 -33 14zM389 238
q-16 0 -28 -12t-12 -29q0 -16 10 -26q11 -11 25 -11q9 0 10 1q-9 -31 -38 -48h-1q-3 -1 -3 -5t3 -5l21 -13q2 -2 4 -2h1l1 1q53 38 53 96q0 25 -13 39q-14 14 -33 14z" />
    <glyph glyph-name="uniF1A4" unicode="&#xf1a4;" horiz-adv-x="380" 
d="M56 327q-56 -56 -56 -135q0 -78 56 -134t134 -56q79 0 135 56q55 55 55 134q0 80 -55 135t-135 55q-79 0 -134 -55zM146 149q-19 18 -19 43t19 44q18 18 44 18t44 -18t18 -44t-18 -44t-44 -18t-44 19z" />
    <glyph glyph-name="uniF1A5" unicode="&#xf1a5;" horiz-adv-x="355" 
d="M355 200l-1 137q0 6 -4 7q-6 2 -8 0l-31 -22l-2 -2q-53 53 -128 53t-128 -53t-53 -128t53 -128t128 -53q46 0 86 22q39 20 65 58q1 1 1 6t-4 6l-45 32q-7 4 -13 -3q-32 -47 -89 -47q-44 0 -76 32t-32 75q0 44 32 76q31 31 76 31q35 0 66 -23l-5 -3l-31 -22q-3 -3 -3 -8
q0 -4 5 -6l130 -44q1 -1 7 1q4 1 4 6z" />
    <glyph glyph-name="uniF1A6" unicode="&#xf1a6;" horiz-adv-x="471" 
d="M123 210q-11 24 -11 47q0 16 4 28q1 7 4 13q-12 5 -21 5q-21 0 -36 -17q-15 -16 -15 -42q0 -34 28 -52l-69 -32q-7 -4 -7 -12v-54q0 -13 11 -13h41v56q0 27 23 39l53 24l-2 5q-1 3 -3 5zM287 270h175q9 0 9 9v33q0 9 -9 9h-195q14 -20 18 -38q0 -3 1 -6q0 -6 1 -7z
M471 75v33q0 9 -9 9h-114v-36v-11v-4h114q9 0 9 9zM462 219h-181q-1 -1 -1 -3q0 -3 -1 -4t-3 -5l-4 -6l53 -25q6 -3 11 -8h126q9 0 9 9v33q0 9 -9 9zM314 153l-59 28l-25 12q16 10 25 30q8 18 8 34q0 11 -3 20q-5 23 -21 38q-17 15 -39 15q-20 0 -37 -14q-17 -15 -23 -38
q-3 -10 -3 -21q0 -17 9 -36q10 -18 25 -29l-24 -11l-61 -28q-9 -5 -9 -16v-56v-11q0 -16 14 -16h218q14 0 14 16v11v56q0 11 -9 16z" />
    <glyph glyph-name="uniF1A7" unicode="&#xf1a7;" horiz-adv-x="431" 
d="M431 303v33q0 9 -9 9h-235q-9 0 -9 -9v0v-33q0 -9 9 -9h235q9 0 9 9zM431 227v32q0 9 -9 9h-235q-9 0 -9 -9v0v-32q0 -10 9 -10h235q9 0 9 10zM127 227v109q0 9 -9 9h-108h-1q-9 0 -9 -9v-109q0 -10 9 -10h109q9 0 9 10zM431 125v32q0 9 -9 9v1h-235v-1q-9 0 -9 -9v0v-32
q0 -9 9 -9h235q9 0 9 9zM431 48v33q0 9 -9 9h-235q-9 0 -9 -9v0v-32v-1q0 -9 9 -9h235q9 0 9 9zM127 48v109q0 10 -9 10v-1h-108l-1 1q-9 0 -9 -10v-109q0 -9 9 -9h109q9 0 9 9z" />
    <glyph glyph-name="uniF1A8" unicode="&#xf1a8;" horiz-adv-x="406" 
d="M213 238l131 -42q4 -2 7 1t3 6l-3 138q0 6 -4 7q-5 2 -8 -1l-30 -23l-2 -1q-52 52 -129 50q-73 -1 -127 -55q-53 -54 -51 -129q1 -74 56 -127q54 -52 129 -51h11l5 2q1 0 1 1h1l2 1v1q4 4 4 9l-1 47q0 5 -4 9t-10 4h-10q-44 -2 -76 30q-32 31 -34 75t30 76t75 33
q38 0 67 -21l-5 -4l-30 -23q-3 -3 -3 -7t5 -6zM291 142l-31 -32l13 -12l16 17l1 -72h21l-2 99h-18zM335 129q-10 -14 -10 -36q0 -20 11 -36t31 -14t30 16q9 15 9 36q0 22 -10 36q-11 16 -31 14t-30 -16zM366 61q-20 0 -20 32q0 33 19 33q20 0 20 -32q0 -33 -19 -33z" />
    <glyph glyph-name="uniF1A9" unicode="&#xf1a9;" horiz-adv-x="372" 
d="M363 313q-4 0 -6 -2l-145 -84v78q0 8 -9 8q-5 0 -7 -2l-192 -111v-1q-4 -3 -4 -7q0 -6 5 -8l192 -111q2 -2 6 -2q9 0 9 8v78l145 -84q2 -2 6 -2q9 0 9 8v226q0 8 -9 8z" />
    <glyph glyph-name="uniF1AA" unicode="&#xf1aa;" horiz-adv-x="339" 
d="M16 102q-13 -13 -13 -32t13 -31q13 -13 32 -13t32 13q13 12 13 31t-13 32t-32 13t-32 -13zM34 239h-1h-17q-16 -1 -16 -17v-32q1 -13 16 -15h17h1q50 0 84 -34q33 -33 35 -84v-18q1 -16 18 -16h31v1q15 2 16 15v18q-2 77 -54 129q-55 53 -130 53zM339 57q-2 127 -90 215
q-89 89 -215 89h-1h-17v-1q-16 -1 -16 -17v-31q2 -14 16 -16h17h1q100 0 170 -70q69 -69 71 -169v-18q1 -16 17 -16h32v1q14 2 15 15v18z" />
    <glyph glyph-name="uniF1AB" unicode="&#xf1ab;" horiz-adv-x="482" 
d="M482 28v24q0 12 -13 12h-38l-169 293q-6 13 -21 13t-21 -13l-169 -293h-39q-12 0 -12 -12v-25v-1q0 -12 12 -12h457q13 0 13 12v2zM228 319h26l29 -51h-84zM169 217h144l29 -51h-202zM81 64l29 51h261l30 -51h-320z" />
    <glyph glyph-name="uniF1AC" unicode="&#xf1ac;" horiz-adv-x="379" 
d="M204 251h53v110h-53v-110zM375 350l-27 26q-4 4 -9 4h-46q-3 0 -4 -1q-2 -2 -2 -4v-130q0 -12 -13 -12h-1h-175q-4 0 -8 4q-4 3 -4 8v130q0 1 -2 3t-5 2h-67q-12 0 -12 -12v-135v-49v-168q0 -12 12 -12h39v12v156v1q0 10 10 11h1h1h253v0q12 0 12 -11v-169h39q12 0 12 12
v324v1q0 5 -4 9z" />
    <glyph glyph-name="uniF1AD" unicode="&#xf1ad;" horiz-adv-x="358" 
d="M298 252q-14 0 -22 -4l-156 90v4q0 24 -17 43q-18 18 -43 18q-26 0 -42 -18q-18 -18 -18 -43q0 -26 18 -42q16 -18 42 -18q18 0 35 12l145 -84q-2 -8 -2 -18t2 -18l-144 -84q-16 12 -36 12q-25 0 -42 -17q-18 -18 -18 -43t18 -43q16 -18 42 -18q25 0 43 18q17 19 17 43v3
l157 91q12 -4 21 -4q25 0 43 18q17 17 17 42q0 24 -17 43q-19 17 -43 17z" />
    <glyph glyph-name="uniF1AE" unicode="&#xf1ae;" horiz-adv-x="384" 
d="M356 130q-6 0 -12 -2l-35 60l34 60q1 -1 7 -1q10 0 20 8q8 8 8 19q0 10 -8 20q-10 8 -20 8q-13 0 -22 -12h-78l-36 62q4 4 4 15q0 10 -8 20q-8 8 -19 8t-19 -8q-9 -9 -9 -20q0 -6 5 -14l-37 -63h-79q-8 14 -24 14q-11 0 -19 -8q-9 -8 -9 -19t9 -19q8 -9 19 -9q6 0 12 3
l35 -60l-35 -60q-1 1 -7 1q-11 0 -19 -8q-8 -10 -8 -20q0 -11 8 -19t19 -8q14 0 23 12h78l34 -60q-3 -6 -3 -13q0 -11 9 -19q8 -9 19 -9t19 9q8 8 8 19q0 6 -3 12l35 61h80q8 -15 24 -15q11 0 20 9q8 8 8 19t-8 19q-10 8 -20 8z" />
    <glyph glyph-name="uniF1AF" unicode="&#xf1af;" horiz-adv-x="344" 
d="M172 394v1l-172 -100v-118q2 -73 51 -126q50 -55 121 -62q72 8 122 62q48 51 50 126v118zM172 41v142h-121v82l121 70v-152h121v-6q-2 -54 -35 -90q-35 -39 -86 -46z" />
    <glyph glyph-name="uniF1B0" unicode="&#xf1b0;" horiz-adv-x="441" 
d="M441 34v216q-1 18 -20 18h-31q-23 45 -69 74q-46 28 -100 28t-100 -28q-47 -29 -70 -74h-31q-18 0 -20 -18v-216q0 -8 6 -14t14 -6h401q8 0 14 6t6 14zM329 268h-217q44 51 109 51t108 -51z" />
    <glyph glyph-name="uniF1B1" unicode="&#xf1b1;" horiz-adv-x="425" 
d="M125 63q-30 0 -30 -30t30 -30q31 0 31 30t-31 30zM337 3q30 0 30 30t-30 30t-30 -30t30 -30zM133 165h200q12 0 16 10l75 130q1 1 1 7q0 8 -5 13t-12 5h-75h-146h-54v33q0 8 -5 13t-12 5h-97h-1q-8 0 -12 -4q-4 -5 -6 -12v-17q0 -8 5 -13t13 -5h1h63v-224q0 -6 6 -12
q5 -5 12 -5h303q15 1 17 15v2v1v15q0 7 -5 12q-6 6 -12 6h-270v25z" />
    <glyph glyph-name="uniF1B2" unicode="&#xf1b2;" horiz-adv-x="462" 
d="M74 129h-58l-2 1h-1q-10 0 -12 -11h-1v-56h1q2 -8 10 -10h87q14 0 21 12l54 54l-55 55zM460 290l-96 68q-5 2 -6 1q-4 -1 -4 -6v-29h-76q-8 0 -15 -6l-54 -54l54 -54l38 37h53v-30q0 -5 4 -6t7 0l95 69q2 2 2 5t-2 5zM459 104l-95 69q-4 1 -7 0t-3 -6v-30h-53l-182 182
q-7 12 -21 12h-87q-9 -2 -11 -10v-56q2 -11 13 -11h2l1 1h58l189 -189q7 -6 14 -6h77v-29q0 -5 3 -6q2 -1 7 1l95 68q3 2 3 5t-3 5z" />
    <glyph glyph-name="uniF1B3" unicode="&#xf1b3;" horiz-adv-x="399" 
d="M390 78q-21 19 -41 1l-46 46q20 29 20 67t-20 67l46 46q21 -19 41 1q9 9 9 21t-9 21q-12 12 -25 9q3 14 -9 26q-9 9 -21 9t-21 -9q-20 -23 -1 -42l-46 -46q-29 20 -67 20t-67 -20l-46 46q19 21 -1 41q-8 8 -21 10q-13 0 -22 -9q-11 -11 -8 -26q-15 3 -26 -8q-9 -9 -9 -21
q0 -13 9 -22t21 -9q11 0 21 8l46 -46q-20 -29 -20 -67t20 -67l-46 -46q-19 19 -42 -1q-9 -9 -9 -21t9 -21q12 -12 26 -9q-3 -15 8 -26q9 -9 21 -9t21 9t9 21q0 11 -8 21l45 45v-31q30 -24 69 -24q38 0 68 24v31l45 -45q-19 -21 1 -41q9 -9 21 -9q12 -1 21 8q11 11 8 26
q16 -3 27 8q9 9 9 22q-2 13 -10 21zM150 153q-7 6 -7 16t7 17q6 7 16 7t17 -7t7 -17t-7 -16q-7 -7 -17 -7t-16 7zM217 153q-7 6 -7 16t7 17q6 7 16 7t17 -7t7 -17t-7 -16q-7 -7 -17 -7t-16 7z" />
    <glyph glyph-name="uniF1B4" unicode="&#xf1b4;" 
d="M262 227q-8 0 -15 -3q-3 -1 -14 -9q-3 -2 -12 -11l-11 -11q2 -3 11 -12q1 -1 13 -10q4 -3 14 -7q8 -3 15 -3q15 0 23 9q8 11 8 24q0 12 -9 23q-9 10 -23 10zM162 193l-11 11q-7 7 -13 11l-2 1l-4 4q-1 1 -2.5 1.5t-3 1.5t-2.5 1q-8 3 -15 3q-15 0 -22 -10q-8 -11 -8 -24
q0 -15 8 -23q9 -9 23 -9q8 0 15 3q10 4 14 7q12 9 13 10q2 2 10 12zM333 376h-297q-15 0 -25 -10q-11 -11 -11 -26v-296q0 -14 11 -25t25 -11h297q15 0 26 11q10 10 10 25v296q0 16 -10 26t-26 10zM326 166q-4 -11 -13 -24q-8 -8 -22 -15q-13 -6 -28 -6t-23 4q-19 8 -20 9
q-2 1 -6 5q-2 1 -6 5q-3 2 -6 5q-9 7 -16 16l-16 -16q-9 -9 -17 -15q-3 -1 -19 -9q-8 -4 -24 -4q-17 0 -29 6t-21 15q-9 8 -14 23q-5 17 -5 29t5 29q4 14 13 23t21 15t29 6q16 0 24 -4q11 -5 20 -11q7 -5 17 -15l9 -9q1 -2 2.5 -3.5l3 -3t1.5 -2.5q1 2 8 9q3 4 8 9
q10 10 17 15q9 6 20 11q8 4 24 4t28 -6q16 -9 22 -15q9 -9 13 -23q5 -17 5 -28q0 -12 -5 -29z" />
    <glyph glyph-name="uniF1B5" unicode="&#xf1b5;" 
d="M232 355l137 -326v326h-137zM0 355v-326l136 326h-136zM125 94h63l26 -65h57l-87 206z" />
    <glyph glyph-name="uniF1B6" unicode="&#xf1b6;" horiz-adv-x="377" 
d="M206 264h-7q-46 -5 -66 -11q-67 -19 -66 -87q1 -30 18 -48q16 -19 45 -22q42 -5 70 19q3 3 6 5q2 1 6 5q2 1 5 4q1 -1 3.5 -3t5 -4.5t4.5 -5.5q10 -12 12 -14q7 -8 17 -1q1 1 6.5 6t9.5 9q5 5 17 14q8 8 1 15q-17 20 -17 51q1 19 -1 104q-1 41 -39 58q-54 25 -113 -1
q-38 -17 -47 -58q-3 -12 9 -13q2 0 5 -0.5t7 -1t8 -0.5q13 -1 19 -3q10 -1 13 8q5 16 17 23q13 7 29 6q21 -3 24 -22q1 -2 1.5 -8t0.5 -9v-14q-1 0 -2 -1h-1zM198 163q-10 -16 -27 -19q-14 -2 -23 6q-9 7 -11 23q-3 42 38 50q24 3 33 4q0 -50 -10 -64zM318 85q-1 -1 -2 -1
q-2 0 -3 -1q-38 -17 -78 -25q-41 -8 -77 -5q-42 5 -89 28q-21 10 -27 14q-7 3 -16 8t-11 6q-8 5 -13 -2q-4 -7 3 -13q1 -1 4 -3t8.5 -6.5t10.5 -8.5l30 -24q56 -38 123 -38q64 1 126 38q19 12 22 14q8 6 3 14t-14 5zM357 124q-33 3 -55 -12q-7 -4 -4 -12q4 -5 10 -4
q8 0 14 1q2 0 6 0.5t6 1.5h10q6 0 4 -6q0 -3 -1 -6q0 -1 -1 -4q0 -2 -1 -3q-2 -6 -3 -11q-1 -2 -1.5 -4.5t-1.5 -4.5t-1 -3q-2 -5 2 -9q1 -1 9 -1q1 0 5 4q19 19 22 49q2 15 -2 19q-4 3 -17 5z" />
    <glyph glyph-name="uniF1B7" unicode="&#xf1b7;" horiz-adv-x="338" 
d="M223 355l18 32q2 2 -2 4q-2 1 -4 -1l-18 -32q-24 10 -48 10t-48 -10l-18 32q-2 2 -4 1q-4 -2 -2 -4l18 -32q-57 -29 -57 -89h222q0 60 -57 89zM118 307q-9 0 -9 9t9 9q10 0 10 -9t-10 -9zM220 307q-10 0 -10 9t10 9q9 0 9 -9t-9 -9zM338 135v103q0 11 -7 18t-18 7
q-10 0 -17 -7t-7 -18v-103q0 -11 7 -18t17 -7q11 0 18 7t7 18zM279 258h-220v-160q0 -6 3 -12q6 -14 23 -14h18v-55q0 -1 1 -2v-3q5 -20 24 -20q2 0 3 1h2q19 3 19 24v55h34v-55q0 -21 19 -24h3q1 -1 2 -1q11 0 18 7t7 18v55h18q7 0 13 3q13 7 13 23v160zM25 263
q-11 0 -18 -7t-7 -18v-103q0 -15 11 -21q4 -4 14 -4q19 0 24 20v5v103q0 11 -7 18t-17 7z" />
    <glyph glyph-name="uniF1B8" unicode="&#xf1b8;" horiz-adv-x="352" 
d="M340 259q-34 42 -79 42q-21 0 -43 -9q-23 -9 -35 -9t-36 9q-25 9 -42 9q-53 0 -86 -52q-23 -34 -17 -92q4 -58 40 -114q38 -56 71 -56q12 0 32 9q19 9 38 9t39 -9t32 -9q32 0 71 60q16 26 27 49q-53 20 -58 77q-5 58 46 86zM233 330q25 32 20 67q-37 -3 -62 -34
q-26 -32 -21 -65q38 -2 63 32z" />
    <glyph glyph-name="uniF1B9" unicode="&#xf1b9;" horiz-adv-x="365" 
d="M255 160q-18 0 -24 -19h45q0 8 -6 14q-5 5 -15 5zM140 136h-43v-36h41q16 0 16 18t-14 18zM331 376h-297q-27 0 -34 -25v-318q8 -21 27 -25h312q20 5 26 24v320q-9 24 -34 24zM220 201v19q0 3 2 3h64q3 0 3 -3v-19q0 -2 -3 -2h-64q-2 0 -2 2zM193 115q0 -29 -24 -42
q-12 -6 -27 -6h-81q-3 0 -3 2v155q0 2 3 2h80q46 0 46 -43q0 -20 -15 -29q4 -2 10 -7q11 -13 11 -32zM312 117q0 -2 -3 -2h-77q1 -11 10 -18q7 -4 14 -4q13 0 19 6q4 4 4 8v2q0 1 2 1h28q2 0 2 -3q0 -19 -12 -30q-14 -11 -22 -12q-14 -2 -19 -2h-3q-29 0 -46 18
q-15 16 -15 44v5q0 2 2 12q2 8 5 14q15 31 55 31q27 0 42 -17q14 -17 14 -53zM148 181q0 12 -8 14h-6h-37v-30h40q11 0 11 16z" />
    <glyph glyph-name="uniF1BA" unicode="&#xf1ba;" horiz-adv-x="388" 
d="M95 160q0 -70 100 -70q99 0 99 70q0 69 -99 69q-100 0 -100 -69zM333 252q-54 36 -126 40q-90 2 -149 -39v99h-58v-179q0 -53 29 -82q27 -27 86 -50q36 -9 79 -9q41 0 77 9q30 7 61 25q25 13 40 36q15 21 15 45q9 61 -54 105zM211 64q-37 -1 -67 6q-30 8 -54 30
q-25 24 -28 58q-3 36 31 66q35 30 101 33q14 0 28 -2q23 -4 34 -9q21 -8 33 -17q15 -9 26 -27q11 -17 13 -38q3 -33 -33 -66t-84 -34z" />
    <glyph glyph-name="uniF1BB" unicode="&#xf1bb;" 
d="M308 376h-247q-25 0 -43 -18t-18 -43v-246q0 -25 18 -43t43 -18h247q25 0 43 18t18 43v246q0 25 -18 43t-43 18zM296 209v-58q0 -29 -21 -50t-50 -21h-82q-29 0 -50 21q-22 21 -22 50v83q0 29 22 51q21 21 50 21h50q13 -1 31 -13q16 -10 24 -26q4 -7 6 -24q1 -15 6 -20
q3 -3 16 -3l15 -2l3 -2l2 -4v-3zM144 220h39q5 0 10 5q4 4 4 9q0 13 -14 13h-39q-14 0 -14 -13q0 -5 4 -9q5 -5 10 -5zM224 166h-80q-6 0 -10 -4t-4 -10q0 -13 14 -13h80q6 0 10 4t4 9q0 6 -4 10t-10 4z" />
    <glyph glyph-name="uniF1BC" unicode="&#xf1bc;" horiz-adv-x="348" 
d="M174 192v174h-174v-174h174v-174h174v174h-174z" />
    <glyph glyph-name="uniF1BD" unicode="&#xf1bd;" 
d="M270 254l1 -81l-47 76l-3 5h-23h-4h-1v-44v-84h32l-2 78l50 -78h28v71v57h-31zM333 376h-297q-15 0 -25 -10q-11 -11 -11 -26v-296q0 -14 11 -25t25 -11h163l-143 115v124v10v2h5h2h3h43q27 0 43 -10q12 -9 17 -16l3 -3q2 -4 3 -5l13 -11v40v5h5h28h3l2 -2v-1l39 -31v29
v5h5h31h5l63 -50v131q0 16 -10 26t-26 10zM137 251q-11 3 -25 3h-3h-18h-5h-20v-5v-123h51q27 0 44 18q16 16 16 46q0 24 -12 40l-2 2l-1 2l-2 2l-1 1l-2 2l-2 2q-1 0 -1 1l-2 1l-2 2q0 1 -2 1t-2 1q-1 1 -2 1q-2 0 -2 1q-2 2 -5 2zM144 189q0 -34 -31 -34h-14v70h14
q31 0 31 -36z" />
    <glyph glyph-name="uniF1BE" unicode="&#xf1be;" 
d="M211 126l-45 93q27 11 56 6l25 -50l67 16q8 1 0 9q-33 27 -67 31q-39 5 -98 -8l48 -101l-169 -48v-31q0 -1 1 -2q2 -2 3 -2h303q1 0 3 2l2 2v118zM335 348h-303h-1l-1 -1q-2 -2 -2 -3v-132q26 21 54 30l-20 46h56l15 -33q18 5 43 8q29 3 76 -1q45 -4 87 -22l1 -1v105
q0 1 -2 3l-2 1h-1zM68 131q21 5 60 16l-31 63q-5 -1 -15 -7q-9 -6 -18 -23q-9 -19 -8 -43v-2q0 -1 3 -3q4 -2 9 -1zM338 376h-307q-13 0 -22 -9t-9 -22v-306q0 -13 9 -22t22 -9h307q13 0 22 9t9 22v306q0 13 -9 22t-22 9zM350 344v-301q0 -14 -15 -14h-303q-14 0 -14 14v301
q0 14 14 14h303q15 0 15 -14z" />
    <glyph glyph-name="uniF1BF" unicode="&#xf1bf;" horiz-adv-x="436" 
d="M436 80v173v3q-1 1 -1 3h-4h-107q-5 0 -5 -5v-120q0 -6 5 -6h62h5v-16q0 -5 -5 -5h-62q-5 0 -5 -5v-23q0 -5 5 -5h106q6 0 6 6zM387 161h-19q-4 0 -4 4v57q0 4 2 4h25v-11v-49q0 -5 -4 -5zM300 259h-106q-5 0 -5 -5v-120q0 -6 5 -6q18 0 31 1h30q6 0 6 -6v-11q0 -5 -5 -5
h-62h-5v-28q0 -5 5 -5h106h5v5v175q0 5 -5 5zM261 223v-59q0 -3 -3 -3h-22q-2 0 -2 3v31q-1 13 -1 31h25q3 0 3 -3zM72 305v-40q0 -1 -6 -6h-61q-5 0 -5 -5v-132q0 -5 5 -5h107h4v193h-44v-5zM67 150h-19q-3 0 -3 2v74h27v-5v-66q0 -5 -5 -5zM171 259h-36q-4 0 -4 -5v-38
v-94q0 -5 4 -5h14h26v2v137q0 3 -4 3zM134 276h38q3 0 3 4v13v17h-44v-31q0 -3 3 -3z" />
    <glyph glyph-name="uniF1C0" unicode="&#xf1c0;" horiz-adv-x="371" 
d="M55 323q-55 -55 -55 -131t55 -131t131 -55t131 55q54 54 54 131q0 76 -54 132q-55 54 -131 54t-131 -55zM308 292q36 -44 36 -99q-60 12 -110 5l-2 4q-2 4 -2 5q-6 14 -10 22q24 9 49 26q22 16 29 24q4 4 10 13zM186 350q61 0 105 -40q-27 -36 -83 -57q-10 18 -20 34
q-16 26 -18 28l-15 21l-7 10q15 4 38 4zM118 335q54 -81 59 -91q-75 -20 -147 -20q17 77 88 111zM27 192v5q93 0 163 22q11 -21 13 -27q-2 0 -3 -1t-3 -1q-76 -24 -129 -104q-41 47 -41 106zM186 33q-55 0 -98 34q2 4 14 22q8 12 40 38t71 39h1q26 -68 33 -120
q-30 -13 -61 -13zM274 60q-14 68 -31 113q23 5 47 3q6 0 35 -4q8 -2 17 -5q-11 -69 -68 -107z" />
    <glyph glyph-name="uniF1C1" unicode="&#xf1c1;" horiz-adv-x="384" 
d="M144 143l-67 -115h240l67 115h-240zM376 149l-120 208l-133 1l121 -208zM120 349l-120 -208l66 -115l120 208z" />
    <glyph glyph-name="uniF1C2" unicode="&#xf1c2;" horiz-adv-x="396" 
d="M117 376l-117 -76l81 -64l117 72zM0 171l117 -76l81 68l-117 73zM198 163l82 -68l116 76l-80 65zM396 300l-116 76l-82 -68l118 -72zM198 148l-81 -68l-35 23v-25l116 -70l117 70v25l-35 -23z" />
    <glyph glyph-name="uniF1C3" unicode="&#xf1c3;" horiz-adv-x="335" 
d="M33 315h38q4 0 4 3l-1 42q0 11 5 19l1 2l-73 -72l-1 -1l4 2q12 5 23 5zM325 322q-5 21 -21 27q-14 5 -51 10q-26 2 -55 2q-3 17 -18 24q-15 5 -39 7q-24 1 -29 -2q-15 -5 -20 -13t-5 -17v-24q0 -12 1 -18q0 -14 -15 -14h-38q-10 0 -19 -4q-4 -2 -10 -8q-6 -8 -6 -24
l2 -20q1 -15 9 -53q8 -42 14 -52q5 -12 15 -16q34 -15 79 -19q15 -3 24 -2q11 0 15 10l3 9q7 21 7 48q0 1 1 1t1 -1q0 -40 22 -47q18 -6 47 -9q16 -2 23 -12t7 -41q0 -20 -6 -25q-6 -6 -29 -6q-21 0 -27 3q-7 3 -7 16q0 4 1 6q0 2 3 4l1 1q1 1 2 1t5 2h5h5h5q2 0 3 1
q0 2 -1 5q-1 2 -1 7q0 3 1 4q0 3 1 4v3q1 4 -1 4q-34 1 -49 -7q-14 -8 -14 -42q0 -33 15 -43q14 -10 58 -10q37 0 50 9q14 9 27 49q12 33 18 101q2 31 -1 88q-5 68 -8 83zM249 203q-12 0 -15 -1q2 10 6 18q5 8 16 6q20 -2 20 -29q-16 6 -27 6z" />
    <glyph glyph-name="uniF1C4" unicode="&#xf1c4;" 
d="M348 376h-328q-8 0 -14 -6t-6 -14v-328q0 -8 6 -14t14 -6h177v142h-48v56h48v41q0 35 20 55q19 19 51 19q28 0 43 -3v-49h-29q-28 0 -28 -27v-36h55l-7 -56h-48v-142h94q8 0 15 6q6 6 6 14v328q0 8 -6 14q-7 6 -15 6z" />
    <glyph glyph-name="uniF1C5" unicode="&#xf1c5;" 
d="M333 376h-297q-15 0 -25 -10q-11 -11 -11 -26v-296q0 -14 11 -25t25 -11h297q15 0 26 11q10 10 10 25v296q0 16 -10 26t-26 10zM68 151q-18 17 -18 42t18 43q17 17 42 17q24 0 43 -17q17 -19 17 -43q0 -25 -17 -42q-18 -18 -43 -18q-26 0 -42 18zM219 151q-17 17 -17 42
q0 24 17 43q17 17 42 17q24 0 43 -17q17 -19 17 -43q0 -25 -17 -42q-18 -18 -43 -18t-42 18z" />
    <glyph glyph-name="uniF1C6" unicode="&#xf1c6;" horiz-adv-x="350" 
d="M350 -18l-175 420l-175 -419h147v13v73l-44 31l11 16l33 -23v67h46v-43l33 18l10 -18l-43 -22v-25l64 33l9 -18l-73 -36v-66h92v-1h65z" />
    <glyph glyph-name="uniF1C7" unicode="&#xf1c7;" horiz-adv-x="415" 
d="M204 172l-67 67q-4 4 -10 4q-5 0 -9 -4l-33 -32q-9 -9 0 -19l110 -110q4 -4 8 -4h1q6 0 10 4l197 197q9 9 0 19l-33 32q-4 4 -9 4q-6 0 -10 -4zM399 227l-167 -166q-11 -11 -27 -11h-7l-2 1q-11 3 -18 10l-109 109q-11 11 -11 27t11 27l32 32q12 12 27 12t27 -12l50 -50
l108 107l-72 72q-14 14 -34 14q-21 0 -35 -14l-158 -159q-14 -14 -14 -34t14 -34l158 -159q14 -14 35 -14q20 0 34 14l158 159q14 14 14 34t-14 34v1z" />
    <glyph glyph-name="uniF1C8" unicode="&#xf1c8;" 
d="M333 376h-297q-15 0 -25 -10q-11 -11 -11 -26v-296q0 -14 11 -25t25 -11h297q15 0 26 11q10 10 10 25v296q0 16 -10 26t-26 10zM116 251q0 41 29 70t70 29t70 -29t29 -70q0 -31 -18 -57q-23 19 -54 19q-54 0 -77 -47q-49 28 -49 85zM30 208q0 45 30 78q29 32 73 37
q-28 -31 -28 -72q0 -30 16 -55q16 -27 40 -41q0 -3 -1 -5l-3 -6q-8 2 -17 2q-41 0 -56 -36q-54 34 -54 98zM103 48q-15 15 -15 37t15 37t37 15t37 -15t15 -37t-15 -37t-37 -15t-37 15zM242 50q-25 0 -45 14q4 12 4 21q0 39 -34 55q4 26 26 45q21 18 49 18q33 0 55 -22
t22 -55q0 -31 -22 -53q-23 -23 -55 -23z" />
    <glyph glyph-name="uniF1C9" unicode="&#xf1c9;" horiz-adv-x="399" 
d="M399 187q0 84 -58 142t-141 58t-141 -58q-59 -59 -59 -142q0 -65 39 -117q37 -52 98 -72q13 -3 13 9v34q-17 -5 -28 -2t-20 6q-7 3 -11 10q-5 7 -6 9q-2 2 -2 4q-9 23 -23 29q-10 6 -7 9q1 1 5 3h4q20 -2 30 -20q20 -35 59 -17q3 20 12 27q-40 4 -66 26q-25 21 -25 73
q0 30 21 53q-9 24 2 53h5q5 1 20 -4q12 -4 30 -17q27 7 50 7t50 -7q38 26 55 21q11 -29 2 -53q20 -23 20 -53q0 -52 -25 -73q-26 -22 -66 -26q13 -10 13 -37v-55q0 -12 14 -9q61 20 98 72q38 53 38 117z" />
    <glyph glyph-name="uniF1CA" unicode="&#xf1ca;" 
d="M57 184q14 -11 31 -11q22 1 37 16q8 11 9 22q1 5 1 18q0 31 -17 67q-8 16 -21 26q-14 10 -30 10q-22 0 -37 -18q-12 -18 -12 -42q0 -30 17 -62q12 -18 22 -26zM91 100q-10 14 -11 16q-5 8 -5 21q0 5 2 13l3 9q-4 -1 -18 -1q-39 0 -62 23v-99q18 8 42 13q37 5 49 5z
M106 84h-12q-14 0 -22 -1q-33 -6 -35 -7l-6 -2q-5 -2 -6 -3q-8 -3 -16 -10q-1 -1 -9 -11v-15q0 -10 8 -18t18 -8h140v1q0 20 -14 37q-19 19 -46 37zM343 375h-66h-93h-93h-65q-11 0 -18 -7q-8 -8 -8 -19v-28v-7l3 3l1 1q0 2 1 2q21 18 49 25q32 5 48 5h111l-35 -20h-34
q9 -6 12 -9q5 -5 12 -16t10 -21q4 -15 4 -29q0 -29 -13 -48q-6 -9 -13 -16q-5 -5 -9 -8q-5 -3 -8 -6l-9 -12q-5 -8 -5 -16q0 -6 5 -14q2 -3 9 -10l19 -15q18 -15 30 -32q13 -19 13 -46q0 -12 -3 -23h145q11 0 19 8q7 7 7 18v286v28q0 12 -7 19t-19 7zM363 261h-58v-58h-28
v58h-59v29h59v58h28v-58h58v-29z" />
    <glyph glyph-name="uniF1CB" unicode="&#xf1cb;" 
d="M333 376h-297q-15 0 -25 -10q-11 -11 -11 -26v-296q0 -14 11 -25t25 -11h297q15 0 26 11q10 10 10 25v296q0 16 -10 26t-26 10zM200 178v-88h-27v88l-65 119h30l30 -57q19 -41 20 -43h1q4 9 21 43l29 57h31z" />
    <glyph glyph-name="uniF1CC" unicode="&#xf1cc;" horiz-adv-x="476" 
d="M459 222q0 4 0.5 10t1 15t0.5 16t0.5 16t1 15t0.5 10h-160l-8 -43v31h-88v-40h-29v-9q-25 19 -62 6v55h-116v-77h15v-66h-15v-76h310v10q26 -15 64 -15q42 0 71 23q27 23 30 62q3 34 -16 57zM227 272h48v-32h-48v32zM195 105h-83v36h8v44q-1 6 -3.5 9t-7.5 2
q-13 -6 -13 -32v-23h7v-36h-83v36h15v106h-15v37h76v-78q18 28 46 28q14 0 24 -8t11 -15q2 -10 2 -16v-54h16v-36zM290 105h-91v36h15v54h-15v36h76v-90h15v-36zM374 100q-58 0 -75 32q-9 15 -2 33t26 18q30 0 24 -28q-3 -8 2 -13q4 -4 11 -4q8 0 16 9q5 7 7 20q1 28 -18 28
q-11 0 -18 -9l-44 6l17 92h122l-2 -48h-81l-2 -16q23 9 38 9q29 0 45 -15q17 -15 15 -47q0 -27 -21 -47q-23 -20 -60 -20z" />
    <glyph glyph-name="uniF1CD" unicode="&#xf1cd;" 
d="M276 216q0 -38 -27 -65t-65 -27t-65 27t-27 65q0 21 10 40h-102v-215q0 -14 11 -25t25 -11h297q15 0 26 11q10 10 10 25v215h-102q9 -18 9 -40zM333 379h-297q-15 0 -25 -10q-11 -11 -11 -26v-72h111q28 37 73 37q46 0 74 -37h111v72q0 16 -10 26t-26 10zM29 288h-13v52
q0 16 13 20v-72zM51 288h-12v74h12v-74zM73 288h-12v74h12v-74zM95 340v-30v-22h-13v74h13v-22zM350 340v-30q0 -9 -6 -15q-7 -7 -16 -7h-35q-9 0 -15 7q-7 6 -7 15v30q0 9 7 16q6 6 15 6h35q8 0 16 -6q6 -8 6 -16zM242 159q23 23 23 57q0 33 -23 58q-25 23 -58 23
q-34 0 -57 -23q-24 -24 -24 -58t24 -57q23 -24 57 -24t58 24zM230 262q19 -19 19 -46t-19 -46t-46 -19t-45 19q-19 19 -19 46t19 46q18 18 45 18q26 0 46 -18z" />
    <glyph glyph-name="uniF1CE" unicode="&#xf1ce;" horiz-adv-x="357" 
d="M340 98q-4 4 -23 13q8 45 -32 82q-8 6 -20 20q-8 9 -15 16q-2 2 -18 20q-8 9 -15 16l-12 -12q-8 -10 -13 -15q-3 -3 -6.5 -7t-4.5 -5q2 -2 4 -3t4 -3l35 -35q15 -16 35 -36q14 -14 8 -31q-7 -19 -25 -19q-7 0 -27 7q-1 -1 -6.5 -6t-9.5 -9l-17 -17q31 -33 81 -22
q5 -26 35 -38h24q2 0 3 1l2 2q26 11 31 37t-18 44zM212 186q-1 -3 -6 -8q-56 -56 -72 -71q-18 -18 -39 -1q-20 17 -4 39l1 2l3 3l-35 35q-31 -29 -23 -77q-31 -7 -37 -42v-10q7 -31 38 -42h22q24 10 31 28q5 9 14 8q37 -4 63 21q22 22 40 41q17 18 40 41q-6 6 -15 14
q-18 16 -21 19zM107 228l33 -33l44 44l35 35q16 15 35 4q19 -10 14 -31q-1 -2 -9 -17l34 -34q32 32 23 78q44 18 41 52q-1 16 -12 30q-10 11 -26 13q-10 1 -31 -4q-20 -8 -27 -35h-6q-37 8 -63 -15q-4 -4 -18.5 -19t-25.5 -26q-19 -20 -41 -42zM38 275q-10 -49 29 -86
l35 -35q3 -4 17 -18t17 -18l12 12l13 13l10 10q-2 2 -3 4l-4 4q-20 20 -35 36q-28 28 -35 36q-18 20 -2 39q20 20 40 4l3 -3l35 35q-30 30 -73 22q-19 43 -53 40q-34 -4 -41 -35q-9 -43 35 -60z" />
    <glyph glyph-name="uniF1CF" unicode="&#xf1cf;" horiz-adv-x="417" 
d="M354 210l-31 7q-27 6 -27 28q0 26 34 26t37 -30l48 6q-6 61 -82 61q-85 0 -85 -68q0 -50 55 -63l33 -8q32 -8 32 -29q0 -25 -49 -25q-61 0 -80 60l-16 48q-15 46 -41 66q-26 19 -75 19q-52 0 -79 -31q-28 -31 -28 -89q0 -54 27 -83t77 -29q55 0 80 25l-15 42l-7 -7
q-5 -5 -23 -14q-15 -7 -32 -7q-25 0 -41 21q-16 19 -16 54q0 41 17 61q16 19 42 19q29 0 43 -15q14 -17 24 -47l15 -48q13 -39 42 -62q28 -22 85 -22q99 0 99 66q0 53 -63 68z" />
    <glyph glyph-name="uniF1D0" unicode="&#xf1d0;" 
d="M341 376h-314q-12 0 -19 -7q-8 -8 -8 -19v-316q0 -10 8 -18t19 -8h314q10 0 20 8q8 8 8 18v316q0 11 -8 19q-8 7 -20 7zM109 62h-54v176h54v-176zM82 262q-14 0 -23 9t-9 23q0 13 10 23q9 9 22 9q12 0 23 -9q9 -11 9 -23q0 -13 -9 -22q-10 -10 -23 -10zM314 62h-55v86
q0 17 -1 22q-2 8 -7 16q-8 8 -20 8q-33 0 -33 -45v-87h-54v176h52v-24h1q13 28 52 28t52 -21q13 -22 13 -62v-97z" />
    <glyph glyph-name="uniF1D1" unicode="&#xf1d1;" 
d="M346 376h-326q-16 -6 -20 -22v-321q9 -25 34 -25h299q15 0 26 11q10 10 10 25v299q0 24 -23 33zM276 241h-7q-6 0 -6 -6v-89q0 -6 6 -6h7v-21h-64v21h12v94l-32 -115h-24l-32 115v-94h13v-21h-54v21h7q6 0 6 6v89q0 6 -6 6h-7v22h68l22 -84h1l22 84h68v-22z" />
    <glyph glyph-name="uniF1D2" unicode="&#xf1d2;" horiz-adv-x="454" 
d="M426 208q21 21 21 51t-21 51t-51 21t-51 -21q-22 -21 -22 -51t22 -51q21 -21 51 -21t51 21zM212 173q65 0 65 65t-65 65t-65 -65t65 -65zM106 179q17 17 17 41t-17 41q-19 17 -42 17q-24 0 -41 -17t-17 -41t17 -41q17 -18 41 -18t42 18zM129 59v23q0 27 -19 46
q-20 20 -46 20q-27 0 -45 -20q-19 -19 -19 -46v-23q0 -6 6 -6h2h113h2q6 0 6 6zM283 60v25q0 29 -20 52q-21 22 -51 22t-51 -22q-21 -23 -21 -52v-25q0 -7 7 -7h2h126h2q6 0 6 7zM454 61v27q0 33 -22 58q-22 24 -57 24t-57 -25q-23 -26 -23 -57v-27q0 -8 8 -8h2h139h3
q7 0 7 8z" />
    <glyph glyph-name="uniF1D3" unicode="&#xf1d3;" 
d="M127 248q-24 -24 -24 -58t24 -58t58 -24t58 24t24 58t-24 58t-58 24t-58 -24zM333 376h-297q-15 0 -25 -10q-11 -11 -11 -26v-296q0 -14 11 -25t25 -11h297q15 0 26 11q10 10 10 25v296q0 16 -10 26t-26 10zM97 102q-37 36 -37 88t37 88q36 36 88 36t88 -36t36 -88
t-36 -88t-88 -36t-88 36z" />
    <glyph glyph-name="uniF1D4" unicode="&#xf1d4;" horiz-adv-x="348" 
d="M348 235q0 65 -48 105q-48 39 -126 39t-125 -40q-49 -40 -49 -104q0 -25 10 -52t27 -44l41 43q-7 6 -12 23q-6 17 -6 30q0 41 34 63q32 22 80 22q46 0 81 -21q34 -21 34 -64q0 -25 -12 -41q-13 -16 -33 -24q-23 -9 -36 -10q-17 -3 -31 -3v113h-63v-181q0 -13 -12 -18
q-12 -4 -29 7v-65q18 -8 35 -8q16 0 28 5q41 18 41 65v23q80 2 125 38q46 37 46 99z" />
    <glyph glyph-name="uniF1D5" unicode="&#xf1d5;" horiz-adv-x="399" 
d="M282 240v133q-39 18 -82 18q-34 0 -70 -13q1 -1 9.5 -8.5t27 -24.5t38.5 -35q74 -68 77 -70zM97 21v172q-59 -51 -83 -75q24 -59 83 -97zM0 192q0 -30 7 -52q1 1 10.5 9.5t32 29.5t47.5 43q25 23 47 42.5t31 27.5l9 9q-2 2 -38 35q-32 28 -37 33q-50 -26 -79 -73
q-30 -48 -30 -104zM118 105v-95q33 -14 63 -17h37q53 5 95 35q43 30 66 77h-261zM303 362v-236h85q11 35 11 66q0 51 -26 98q-25 44 -70 72z" />
    <glyph glyph-name="uniF1D6" unicode="&#xf1d6;" horiz-adv-x="399" 
d="M200 -8q82 0 141 59q58 58 58 141q0 84 -58 142t-141 58q-82 0 -141 -59t-59 -141q0 -60 33 -109q33 -50 87 -74q-1 27 3 46q1 5 4 18t9.5 39t12.5 52l-1 4q-3 6 -4 11q-2 10 -2 16q0 22 12 37q10 15 27 15q27 0 27 -30q0 -9 -3 -19q-1 -2 -8 -27q-1 -4 -2.5 -9.5t-3 -9
t-1.5 -6.5q-5 -15 6 -26q10 -12 26 -12q28 0 46 31q17 31 17 75q0 34 -22 55t-61 21q-44 0 -71 -28t-27 -67q0 -25 13 -39q4 -4 3 -11q0 -4 -1 -8q-1 -7 -3 -9q-2 -8 -10 -5q-41 17 -41 77q0 47 38 87q38 38 104 38q56 0 91 -34q36 -35 36 -81q0 -59 -30 -98t-78 -39
q-36 0 -49 25l-14 -55q-5 -20 -20 -43q30 -8 57 -8z" />
    <glyph glyph-name="uniF1D7" unicode="&#xf1d7;" horiz-adv-x="435" 
d="M424 291q-48 -1 -135 52q-1 0 -3 2q0 1 -1 1t-2 1l-8 4v-145q0 -20 -12 -40l-1 -1q-19 -30 -52 -43q-35 -14 -67 -2q-33 10 -42 40q-11 29 9 58l1 1q19 30 52 43q33 14 67 2q6 -2 10 -5v105q-28 7 -53 7q-81 0 -133 -52q-54 -53 -54 -127v-1q0 -75 53 -126
q52 -52 133 -52t134 52q53 53 53 127v1q0 18 -1 23l9 3q38 13 52 47q9 24 -9 25z" />
    <glyph glyph-name="uniF1D8" unicode="&#xf1d8;" horiz-adv-x="458" 
d="M458 197q0 21 -15 38q-15 15 -37 15q-18 0 -34 -13h-1q-55 35 -131 38l31 85l75 -18q0 -18 13 -30q12 -13 30 -13t31 13q12 12 12 30t-12 31q-14 12 -31 12q-29 0 -40 -27l-89 22l-37 -105q-81 -2 -136 -38q-16 13 -34 13q-22 0 -37 -15q-16 -16 -16 -38q0 -27 24 -44
q-1 -3 -1 -16q0 -57 61 -97q61 -41 145 -41t146 41q60 40 60 97q0 1 -2 15q25 16 25 45zM299 129q-14 0 -23 10q-10 9 -10 22t10 23t23 10t23 -9q9 -11 9 -24t-9 -22q-10 -10 -23 -10zM305 73q-24 -24 -77 -24q-50 0 -75 25q-5 6 1 12t12 -1q0 -1 6 -5q6 -6 21 -10
q17 -5 35 -5q45 0 65 20q6 6 12 0t0 -12zM131 161q0 14 10 24q9 9 22 9t23 -10t10 -23t-9 -22q-10 -10 -24 -10q-13 0 -22 10q-10 9 -10 22z" />
    <glyph glyph-name="uniF1D9" unicode="&#xf1d9;" horiz-adv-x="390" 
d="M103 162h75q2 0 7 -3q2 -3 8 -9q5 -6 9 -9v9l2 9q3 4 8 4h74l6 1q6 1 19 6q16 6 23 9l-275 -3q25 -11 44 -14zM25 166q-1 1 -3 2l-2 2q4 -4 5 -4zM39 368h311v-182q4 2 20 13v180q0 10 -10 10h-332q-10 0 -10 -10v-180l2 -1q1 -1 3 -2l4 -2q8 -6 12 -8v182zM388 202
q-4 3 -12 0l-6 -3q-16 -11 -20 -13l-12 -6q-1 0 -2 -1l-2 -1q-26 -12 -48 -15h-74q-5 0 -8 -4q-2 -4 -2 -9v-9q2 -2 9 -5q29 -11 44 9q12 17 20 14q6 -3 3 -14q-5 -13 -13 -21q-19 -19 -42 -19q-5 0 -21 2v-77q0 -15 13 -24q11 -10 26 -10t35 12q18 10 29 36q8 14 6 40
q-1 25 -3 34q0 3 -1 5.5t-2 5.5t-1 4l51 27q24 17 33 34q3 6 0 8zM265 124q8 8 13 21q3 11 -3 14q-8 3 -20 -14q-15 -20 -44 -9q-7 3 -9 5q-4 3 -9 9q-6 6 -8 9q-5 3 -7 3h-75l-44 14q-2 0 -4 1l-4 2q-4 2 -6 4q-5 1 -6 3q-4 2 -12 8l-4 2t-3 2l-2 1l-4 2q-9 3 -13 0
q-3 -2 0 -8q0 -7 19 -23l2 -2q2 -1 3 -2q1 0 5 -3l3 -3l2 -1q30 -19 51 -28l-4 -15q-3 -14 -3 -34q-2 -20 6 -40q20 -47 63 -47q14 0 27 9t13 24v83l14 -4q16 -2 21 -2q23 0 42 19zM251 272q-19 0 -32 -13q-14 -14 -14 -33t14 -33t32 -14q19 0 33 14t14 33q0 20 -13 33
t-34 13zM141 272q-19 0 -32 -13q-14 -14 -14 -33t14 -33t32 -14q19 0 33 14t14 33q0 20 -13 33t-34 13z" />
    <glyph glyph-name="uniF1DA" unicode="&#xf1da;" horiz-adv-x="394" 
d="M383 150q4 15 4 40q0 78 -55 133t-133 55q-17 0 -32 -3q-26 17 -58 17q-45 0 -77 -32t-32 -77q0 -31 15 -55q-4 -21 -4 -38q0 -78 55 -133t133 -55q19 0 35 3q23 -13 51 -13q45 0 77 32t32 77q0 24 -11 49zM296 100q-13 -18 -39 -29q-23 -10 -58 -10q-38 0 -68 14
q-19 10 -31 27q-12 18 -12 34q0 10 8 18q7 7 20 7q9 0 16 -5q6 -6 11 -17q5 -12 11 -19q6 -8 16 -12q13 -5 27 -5q25 0 38 10q14 9 14 24q0 10 -7 17q-8 8 -20 12q-1 0 -5 1t-12.5 3t-17.5 4q-30 6 -49 15q-22 10 -32 23q-12 15 -12 38q0 22 12 38q13 17 37 26q22 8 55 8
q26 0 44 -6q22 -8 31 -15q11 -7 18 -21q6 -10 6 -21q0 -10 -8 -18t-19 -8q-8 0 -16 5q-3 2 -11 15q-7 15 -17 21q-7 7 -32 7q-18 0 -32 -8q-12 -7 -12 -18q0 -7 4 -11q7 -7 11 -9l15 -6q8 -1 26 -6q18 -4 42 -11q19 -5 32 -15q14 -9 21 -22q8 -14 8 -33q0 -26 -13 -42z" />
    <glyph glyph-name="uniF1DB" unicode="&#xf1db;" horiz-adv-x="390" 
d="M173 165q-31 10 -52 27l-1 1l-3 3l-4 2q-1 0 -1 1v1l-1 1q-1 1 -2 1t-1 1l-2 1v1l-6 6v1h-1q-2 2 -3 4l-2 2v1l-4 4l-1 2q0 1 -1 1q0 1 -2 3t-2 3v1q0 2 -1 4l-1 1q0 2 -1 2h-1v1q0 2 -1 4q-1 1 -1 3q-2 6 -2 8v1v4q-1 1 -1 4v10v3v7q0 1 1 2v1q0 2 1 3v3v4l2 6l1 2v1
q0 2 1 3t1 3q0 1 1 1v1q7 16 16 26l-77 -19q-11 -3 -17 -13q-7 -10 -4 -22l64 -268q3 -11 14 -17q10 -7 21 -4l33 8q-27 9 -56 23l30 70l11 -8q13 -9 33 -16q24 -8 45 -8q10 0 18 3q29 9 27 35q-3 34 -68 60zM390 97l-65 268q-3 12 -12 18q-10 6 -22 3l-56 -13q3 0 7 -1
q2 0 5 -0.5t5 -1.5q2 0 3 -1t2 -1h2h2q1 -1 2 -1h1q0 -1 1 -1h3q1 0 2 -1l1 -1h1q2 0 4 -2h3q1 0 2 -1t2 -1h1q0 -1 1 -1l4 -2q1 -1 3 -1h1l1 -1q1 -1 3 -1q1 0 2 -1h1q0 -1 1 -1q2 0 4 -1l1 -1q2 0 2 -1l-24 -67l-6 6q-9 5 -25 12q-18 5 -43 7q-9 1 -19 -2q-28 -7 -28 -29
q2 -32 67 -54l9 -3h1q0 -1 1 -1l6 -3h2q3 -1 8 -4h1l6 -3h1l1 -1q0 -1 1 -1t2 -1l1 -1q2 0 2 -1h1l1 -1q2 0 2 -1q2 -2 3 -2l1 -1q1 0 3 -2l2 -2l1 -1q0 -1 1 -1t2 -1l2 -2q41 -35 39 -85q-2 -31 -18 -56l56 14q10 3 18 14q7 10 4 21z" />
    </font>
</defs>
</svg>
